<svg width="630" height="710" viewBox="0 0 630 710" fill="none" xmlns="http://www.w3.org/2000/svg">
<path opacity="0.5" d="M315.361 550.964C445.148 550.964 550.361 442.401 550.361 308.482C550.361 174.563 445.148 66 315.361 66C185.574 66 80.3613 174.563 80.3613 308.482C80.3613 442.401 185.574 550.964 315.361 550.964Z" stroke="white" stroke-width="88"/>
<path d="M335.26 323.617L348.864 323.804L349.079 309.555L335.53 307.698L335.26 323.617Z" fill="#BF0830"/>
<path d="M381.062 319.893L394.68 317.185L391.839 303.22L377.92 304.276L381.062 319.893Z" fill="#BF0830"/>
<path d="M359.017 200.304C358.509 215.01 356.305 272.577 351.666 310.2C351.511 311.408 350.919 312.516 350.002 313.317C349.085 314.117 347.907 314.555 346.69 314.546C342.951 314.532 339.234 313.981 335.652 312.908C334.639 312.611 333.746 311.999 333.103 311.161C332.46 310.323 332.1 309.303 332.075 308.247L330.186 193.699C330.183 193.42 330.203 193.142 330.245 192.866L330.332 192.299C330.456 191.564 330.741 190.866 331.167 190.255C331.593 189.644 332.15 189.135 332.797 188.765C333.444 188.395 334.165 188.174 334.908 188.116C335.651 188.059 336.397 188.168 337.093 188.434L355.802 195.52C356.771 195.881 357.602 196.536 358.179 197.395C358.756 198.253 359.049 199.271 359.017 200.304V200.304Z" fill="#1A2578"/>
<path d="M378.705 193.672C379.088 214.221 380.569 234.735 383.142 255.127C385.466 273.021 392.103 291.606 393.178 307.195C393.242 308.201 392.942 309.195 392.332 309.997C391.722 310.798 390.843 311.353 389.857 311.559C385.717 312.459 381.456 312.673 377.246 312.19C376.38 312.1 375.564 311.743 374.909 311.17C374.253 310.597 373.792 309.835 373.587 308.988L359 259.664L350.157 209.805L340.68 182.685L378.705 193.672Z" fill="#2836A5"/>
<path d="M349.174 325.505H337.245L332.405 320.309L323.559 325.505H321.656C321.338 325.497 321.028 325.6 320.778 325.795C320.528 325.99 320.353 326.266 320.283 326.575C320.245 326.771 320.25 326.973 320.299 327.167C320.348 327.36 320.44 327.541 320.567 327.694C320.695 327.848 320.855 327.972 321.036 328.056C321.217 328.14 321.415 328.183 321.614 328.181H349.353C349.45 328.181 349.544 328.142 349.613 328.074C349.682 328.005 349.722 327.912 349.723 327.815V326.036C349.723 325.964 349.708 325.894 349.68 325.829C349.652 325.764 349.611 325.705 349.56 325.655C349.509 325.606 349.448 325.567 349.382 325.541C349.316 325.515 349.245 325.503 349.174 325.505V325.505Z" fill="#AE253D"/>
<path d="M349.07 325.52V320.694C349.07 320.694 347.057 318.027 344.001 319.386C344.001 319.386 339.372 322.625 335.31 318.709L325.183 323.137C325.183 323.137 322.406 324.052 321.656 325.52H349.07Z" fill="#1F1587"/>
<path d="M395.328 318.041L383.86 321.293L377.759 317.634L370.714 325.039L368.884 325.556C368.577 325.636 368.307 325.82 368.12 326.077C367.933 326.334 367.841 326.648 367.86 326.965C367.881 327.163 367.944 327.355 368.046 327.526C368.148 327.697 368.286 327.843 368.451 327.956C368.616 328.068 368.803 328.143 368.999 328.176C369.196 328.209 369.397 328.198 369.589 328.145L396.248 320.58C396.294 320.566 396.338 320.544 396.376 320.514C396.414 320.484 396.446 320.446 396.469 320.404C396.493 320.361 396.507 320.314 396.513 320.266C396.518 320.218 396.513 320.169 396.499 320.122L396.001 318.407C395.959 318.27 395.865 318.154 395.74 318.086C395.614 318.017 395.466 318.001 395.328 318.041V318.041Z" fill="#AE253D"/>
<path d="M395.228 318.08L393.856 313.442C393.856 313.442 391.18 311.429 388.623 313.57C388.623 313.57 385.082 317.943 380.064 315.29L371.575 322.307C371.575 322.307 369.159 323.944 368.83 325.563L395.228 318.08Z" fill="#1F1587"/>
<path d="M331.138 130.912C331.138 130.912 324.483 119.829 323.888 118.105C322.548 114.235 318.957 78.6883 318.957 78.6883L329.656 77.9336L335.603 105.933L343.58 123.392L331.138 130.912Z" fill="#BF0830"/>
<path d="M317.704 66.5119C317.955 66.4242 318.23 66.4349 318.474 66.5418C318.717 66.6488 318.911 66.844 319.017 67.0882L320.416 70.1942C320.436 70.243 320.472 70.2838 320.517 70.3103C320.563 70.3368 320.616 70.3474 320.668 70.3405V70.3405C320.705 70.3374 320.741 70.3261 320.773 70.3073C320.804 70.2885 320.832 70.2628 320.852 70.2321C320.873 70.2013 320.886 70.1663 320.892 70.1297C320.897 70.093 320.894 70.0557 320.883 70.0203L319.442 65.1945C319.399 65.0725 319.385 64.942 319.402 64.8137C319.418 64.6853 319.465 64.5627 319.537 64.4555C319.61 64.3483 319.706 64.2596 319.819 64.1965C319.932 64.1334 320.058 64.0976 320.188 64.0921V64.0921C320.481 64.0761 320.772 64.1569 321.015 64.3222C321.258 64.4875 321.44 64.7281 321.533 65.007L323.001 69.9243C323.017 69.9798 323.051 70.028 323.099 70.0606C323.147 70.0932 323.204 70.1081 323.262 70.1027H323.344C323.377 70.1004 323.409 70.0915 323.438 70.0766C323.468 70.0617 323.494 70.0411 323.515 70.016C323.536 69.9908 323.553 69.9616 323.562 69.9302C323.572 69.8987 323.576 69.8656 323.573 69.8328L323.037 64.1607C323.01 63.8963 323.083 63.6312 323.243 63.4184C323.402 63.2056 323.636 63.0607 323.897 63.0126C324.036 62.9907 324.177 62.9974 324.313 63.0321C324.449 63.0668 324.576 63.1289 324.687 63.2146C324.798 63.3003 324.89 63.4077 324.958 63.5302C325.026 63.6528 325.068 63.788 325.082 63.9274L325.622 69.6361C325.624 69.6688 325.633 69.7007 325.648 69.7299C325.663 69.7591 325.684 69.785 325.709 69.8059C325.734 69.8269 325.763 69.8425 325.795 69.8518C325.826 69.8612 325.859 69.864 325.892 69.8602L326.157 69.8374C326.218 69.8318 326.275 69.8041 326.317 69.7594C326.359 69.7148 326.384 69.6563 326.386 69.5949L326.582 64.2751C326.588 64.0097 326.694 63.7564 326.879 63.5662C327.064 63.376 327.315 63.2632 327.58 63.2505C327.72 63.2459 327.861 63.2705 327.991 63.3226C328.122 63.3747 328.241 63.4532 328.34 63.5532C328.439 63.6532 328.517 63.7726 328.568 63.9039C328.619 64.0352 328.642 64.1755 328.636 64.3163C328.636 64.3163 328.774 72.4447 328.902 73.7117L331.189 71.818C331.274 71.7139 331.38 71.6277 331.499 71.5644C331.618 71.5011 331.749 71.4619 331.883 71.4492C332.017 71.4364 332.153 71.4503 332.282 71.4901C332.411 71.5298 332.53 71.5946 332.634 71.6808V71.6808C332.739 71.7669 332.825 71.8728 332.888 71.9923C332.952 72.1118 332.991 72.2427 333.003 72.3774C333.016 72.512 333.002 72.6479 332.962 72.7772C332.923 72.9065 332.858 73.0266 332.771 73.1308L329.167 78.6885C328.934 78.9721 328.193 79.0453 327.584 78.9584C321.601 79.9876 320.673 80.0974 319.035 80.2255L318.646 73.7483C318.534 71.8789 318.083 70.0454 317.315 68.337L317.118 67.907C317.059 67.7777 317.028 67.6376 317.026 67.4955C317.023 67.3533 317.051 67.2123 317.106 67.0812C317.161 66.9502 317.242 66.8319 317.345 66.7339C317.448 66.6359 317.57 66.5603 317.704 66.5119V66.5119Z" fill="#BF0830"/>
<path d="M391.806 137.742C391.806 137.742 400.424 128.104 401.329 126.535C403.369 122.986 413.57 88.7475 413.57 88.7475L403.205 86.0029L392.098 112.387L380.979 128.058L391.806 137.742Z" fill="#BF0830"/>
<path d="M417.069 77.0107C416.84 76.8766 416.568 76.8347 416.309 76.8933C416.05 76.9519 415.823 77.1066 415.674 77.3263L413.716 80.1166C413.688 80.1607 413.645 80.194 413.595 80.2114C413.546 80.2288 413.492 80.2292 413.442 80.2126V80.2126C413.407 80.2025 413.374 80.1847 413.346 80.1605C413.319 80.1362 413.297 80.1061 413.283 80.0724C413.268 80.0387 413.261 80.0021 413.263 79.9655C413.264 79.9288 413.274 79.8929 413.291 79.8604L415.61 75.3914C415.675 75.2795 415.713 75.1541 415.721 75.0251C415.729 74.8961 415.707 74.767 415.656 74.648C415.605 74.5291 415.528 74.4235 415.429 74.3398C415.331 74.256 415.214 74.1963 415.089 74.1655V74.1655C414.804 74.0937 414.504 74.1175 414.235 74.2332C413.965 74.349 413.741 74.5502 413.597 74.8059L411.233 79.3801C411.205 79.4315 411.162 79.4721 411.109 79.4954C411.055 79.5187 410.996 79.5232 410.94 79.5082L410.857 79.4807C410.826 79.4724 410.796 79.4577 410.77 79.4375C410.745 79.4174 410.723 79.3923 410.707 79.3636C410.692 79.335 410.682 79.3035 410.679 79.2709C410.675 79.2384 410.679 79.2055 410.688 79.1743L412.275 73.6852C412.353 73.4314 412.332 73.1575 412.216 72.9189C412.099 72.6803 411.897 72.4948 411.649 72.3998C411.517 72.3516 411.376 72.331 411.235 72.3393C411.095 72.3476 410.958 72.3846 410.832 72.448C410.706 72.5115 410.595 72.6 410.505 72.7082C410.415 72.8163 410.348 72.9418 410.309 73.0768L408.712 78.5659C408.693 78.6296 408.65 78.6833 408.592 78.7158C408.534 78.7482 408.465 78.7568 408.401 78.7397L408.145 78.662C408.087 78.6459 408.037 78.6091 408.004 78.5585C407.971 78.508 407.958 78.4471 407.967 78.3875L408.776 73.1226C408.818 72.8605 408.76 72.5923 408.614 72.3711C408.467 72.1499 408.243 71.9919 407.985 71.9287C407.848 71.8982 407.705 71.8963 407.567 71.9229C407.429 71.9495 407.298 72.0042 407.182 72.0835C407.066 72.1628 406.967 72.265 406.892 72.384C406.817 72.5029 406.767 72.6359 406.745 72.7749C406.745 72.7749 405.085 80.7341 404.723 81.96L402.83 79.6729C402.697 79.4346 402.475 79.2587 402.213 79.1833C401.951 79.1079 401.669 79.1392 401.43 79.2703V79.2703C401.192 79.4024 401.016 79.6234 400.941 79.8848C400.865 80.1463 400.896 80.4269 401.027 80.6655L403.525 86.8041C403.703 87.1289 404.412 87.3347 405.025 87.3667C410.711 89.4983 411.603 89.7819 413.19 90.2119L414.787 83.9223C415.249 82.1079 416.036 80.3922 417.11 78.8587L417.38 78.4744C417.461 78.3594 417.516 78.2291 417.544 78.0916C417.572 77.9541 417.572 77.8123 417.542 77.6751C417.513 77.5378 417.456 77.4081 417.375 77.2938C417.293 77.1795 417.189 77.0831 417.069 77.0107V77.0107Z" fill="#BF0830"/>
<path d="M361.104 111.72L358.062 119.496C358.062 119.496 356.923 122.09 359.1 123.32L356.493 128.251C355.82 129.495 356.918 129.468 358.021 130.355C358.637 130.854 359.327 131.253 360.065 131.54C362.7 132.569 364.9 131.151 365.504 130.25C366.108 129.349 367.293 124.367 367.293 124.367L368.281 122.08L371.483 112.973L361.104 111.72Z" fill="#BF0830"/>
<path d="M365.944 118.1C365.958 118.107 365.974 118.111 365.989 118.111C366.005 118.111 366.021 118.107 366.035 118.1C366.064 118.088 366.087 118.065 366.099 118.036C366.111 118.007 366.111 117.974 366.099 117.945C366.099 117.945 365.184 115.79 363.355 116.362C363.324 116.371 363.299 116.392 363.284 116.42C363.269 116.448 363.265 116.481 363.275 116.511C363.284 116.541 363.304 116.567 363.332 116.582C363.36 116.597 363.393 116.6 363.423 116.591C365.033 116.083 365.834 117.963 365.866 118.036C365.873 118.052 365.883 118.067 365.897 118.078C365.91 118.089 365.926 118.097 365.944 118.1V118.1Z" fill="#090028"/>
<path d="M361.675 115.677C361.691 115.684 361.708 115.688 361.725 115.688C361.743 115.688 361.76 115.684 361.776 115.677C361.803 115.662 361.823 115.637 361.831 115.607C361.84 115.577 361.836 115.545 361.821 115.517C361.794 115.462 361.094 114.145 360.211 114.465C360.182 114.476 360.159 114.498 360.145 114.526C360.132 114.554 360.129 114.586 360.138 114.616C360.149 114.646 360.17 114.67 360.199 114.684C360.227 114.698 360.259 114.699 360.289 114.689C360.984 114.447 361.606 115.604 361.616 115.627C361.629 115.65 361.65 115.668 361.675 115.677V115.677Z" fill="#090028"/>
<path d="M371.015 113.307L368.161 115.192C368.161 115.192 361.757 115.192 359.89 111.5C358.024 107.809 359.396 106.926 360.732 105.984C361.391 105.526 363.865 104.991 365.86 107.008C366.953 108.111 368.604 106.743 369.803 108.221C371.001 109.698 372.218 111.93 371.779 112.452C371.34 112.973 371.015 113.307 371.015 113.307Z" fill="#090028"/>
<path d="M371.333 112.163C371.333 112.163 373.917 113.032 373.67 115.749C373.423 118.466 371.973 119.372 371.666 120.086C371.36 120.799 369.937 125.904 366.635 124.202L368.867 115.736L371.328 112.991L371.333 112.163Z" fill="#090028"/>
<path d="M366.319 118.626C366.165 119.017 366.131 119.445 366.221 119.855C366.311 120.265 366.52 120.64 366.823 120.931C367.126 121.222 367.508 121.417 367.922 121.491C368.336 121.564 368.762 121.514 369.146 121.345C369.531 121.176 369.857 120.897 370.083 120.543C370.309 120.189 370.425 119.776 370.416 119.356C370.407 118.936 370.274 118.528 370.033 118.184C369.792 117.84 369.455 117.575 369.063 117.423C368.804 117.321 368.527 117.272 368.249 117.278C367.971 117.283 367.696 117.344 367.441 117.456C367.187 117.567 366.956 117.728 366.764 117.929C366.571 118.13 366.42 118.367 366.319 118.626V118.626Z" fill="#BF0830"/>
<path d="M367.966 120.667C368.147 120.732 368.343 120.736 368.527 120.68C368.71 120.623 368.87 120.507 368.982 120.352C369.103 120.21 369.172 120.032 369.18 119.846C369.187 119.661 369.132 119.478 369.023 119.327C368.904 119.168 368.74 119.049 368.553 118.983C368.365 118.918 368.162 118.91 367.971 118.961C368.121 118.783 368.33 118.664 368.561 118.627C368.89 118.61 369.215 118.712 369.476 118.915C369.488 118.922 369.502 118.924 369.516 118.922C369.53 118.919 369.542 118.911 369.551 118.9C369.559 118.889 369.564 118.876 369.564 118.862C369.563 118.848 369.558 118.834 369.549 118.824C369.27 118.6 368.917 118.49 368.561 118.513C368.4 118.539 368.247 118.599 368.111 118.689C367.975 118.778 367.86 118.896 367.774 119.034L367.65 119.208L367.847 119.121C368.035 119.038 368.245 119.02 368.444 119.07C368.644 119.121 368.82 119.237 368.945 119.4C369.037 119.531 369.082 119.689 369.075 119.849C369.068 120.008 369.007 120.161 368.904 120.283C368.808 120.419 368.67 120.519 368.511 120.568C368.352 120.618 368.182 120.614 368.026 120.557V120.557C368.019 120.555 368.011 120.553 368.004 120.553C367.996 120.553 367.989 120.555 367.982 120.558C367.975 120.561 367.969 120.565 367.964 120.571C367.959 120.576 367.955 120.582 367.952 120.59C367.949 120.597 367.946 120.604 367.946 120.612C367.946 120.62 367.947 120.628 367.95 120.636C367.953 120.643 367.958 120.65 367.964 120.655C367.97 120.661 367.977 120.665 367.984 120.667H367.966Z" fill="#AE253D"/>
<path d="M365.317 123.188C365.317 123.188 363.442 127.538 357.77 125.809L359.101 123.338C359.101 123.338 362.394 125.452 365.317 123.188Z" fill="#AE253D"/>
<path d="M358.162 118.128C358.162 118.128 355.381 123.123 358.817 124.683C363.725 126.911 365.33 124.225 366.542 122.012L368.482 117.195L368.866 115.727C368.356 115.991 367.943 116.411 367.686 116.925C367.133 118.041 365.655 121.042 365.312 121.092C364.818 121.129 359.141 117.922 358.162 118.128Z" fill="#090028"/>
<path d="M361.521 119.446C361.531 119.452 361.543 119.456 361.555 119.456C361.567 119.456 361.579 119.452 361.589 119.446C361.595 119.44 361.6 119.434 361.603 119.426C361.606 119.419 361.608 119.411 361.608 119.403C361.608 119.394 361.606 119.386 361.603 119.379C361.6 119.371 361.595 119.365 361.589 119.359L360.633 118.568L362.006 116.111C362.012 116.098 362.014 116.082 362.009 116.068C362.005 116.054 361.996 116.041 361.983 116.034C361.976 116.03 361.968 116.027 361.96 116.026C361.952 116.025 361.944 116.025 361.937 116.028C361.929 116.03 361.922 116.033 361.916 116.038C361.909 116.043 361.904 116.049 361.9 116.056L360.496 118.595L361.53 119.451L361.521 119.446Z" fill="#AE253D"/>
<path d="M361.955 120.85C361.927 120.85 359.805 119.936 359.805 119.936C359.805 119.936 359.727 120.924 360.514 121.258C361.301 121.591 361.955 120.85 361.955 120.85Z" fill="#FBFDFC"/>
<path d="M330.195 78.3919C330.195 78.3919 336.261 106.148 336.046 105.865C335.831 105.581 347.061 125.722 348.822 126.559C350.583 127.396 374.524 128.846 374.524 128.846L391.476 112.836L402.482 86.5386C405.336 86.6118 413.561 90.5365 413.561 90.5365L402.546 125.314C402.095 126.737 401.32 128.035 400.282 129.106C395.767 133.754 383.078 146.923 382.053 149.023C380.809 151.58 379.071 205.743 379.071 205.743C338.475 205.569 329.592 195.808 329.592 195.808C329.592 195.808 334.445 142.628 334.545 139.879C334.545 139.879 328 128.118 325.854 123.567C324.895 121.686 324.031 119.758 323.265 117.79C322.264 115.105 318.412 79.2976 318.412 79.2976C321.774 78.1037 330.195 78.3919 330.195 78.3919Z" fill="#FCE6CF"/>
<g style="mix-blend-mode:multiply">
<g style="mix-blend-mode:multiply" opacity="0.5">
<g style="mix-blend-mode:multiply" opacity="0.5">
<path d="M346.699 201.705C349.32 168.839 360.372 128.645 360.481 128.243L359.786 128.06C359.676 128.462 348.607 168.72 345.977 201.659L346.699 201.705Z" fill="#F7546C"/>
</g>
</g>
</g>
<path d="M360.701 128.091C360.015 128.952 359.249 129.747 358.414 130.465C345.547 142.623 321.907 128.695 327.236 150.793C328.915 147.664 329.098 142.87 332.606 140.761C333.1 140.467 333.645 140.269 334.212 140.176C343.415 138.662 356.402 140.89 360.701 128.091Z" fill="#090028"/>
<path d="M360.88 130.002L359.489 130.775L358.478 130.414L358.08 128.447L359.59 127.445L361.062 127.889L360.88 130.002Z" fill="#090028"/>
<path d="M360.381 127.057L357.82 125.717L356.58 127.542L358.099 129.77L360.134 128.141L360.88 130.465L367.064 128.352L366.735 126.581L360.381 127.057Z" fill="#F7546C"/>
<path d="M379.077 203.556C379.077 203.556 343.609 204.187 329.767 193.703L329.57 195.99C329.57 195.99 334.721 201.328 350.905 203.972C367.088 206.616 379.077 205.729 379.077 205.729V203.556Z" fill="#090028"/>
<path d="M350.386 201.209L349.727 203.785C349.698 203.9 349.625 204 349.523 204.062C349.421 204.125 349.299 204.145 349.183 204.119L342.637 202.66C342.575 202.646 342.517 202.621 342.466 202.584C342.415 202.547 342.372 202.5 342.34 202.446C342.308 202.392 342.287 202.332 342.279 202.269C342.271 202.207 342.276 202.144 342.294 202.083L343.049 199.54C343.082 199.429 343.156 199.334 343.256 199.275C343.356 199.217 343.475 199.199 343.588 199.224L350.038 200.647C350.099 200.66 350.156 200.685 350.206 200.72C350.257 200.756 350.3 200.801 350.332 200.854C350.365 200.906 350.386 200.965 350.395 201.026C350.405 201.087 350.401 201.15 350.386 201.209V201.209Z" fill="#BF0830"/>
<path d="M468.686 328.094H302.051C296.91 328.094 292.742 332.261 292.742 337.402V700.395C292.742 705.536 296.91 709.704 302.051 709.704H468.686C473.827 709.704 477.994 705.536 477.994 700.395V337.402C477.994 332.261 473.827 328.094 468.686 328.094Z" fill="#A22641"/>
<path d="M423.666 328.094H257.031C251.89 328.094 247.723 332.261 247.723 337.402V700.395C247.723 705.536 251.89 709.704 257.031 709.704H423.666C428.807 709.704 432.975 705.536 432.975 700.395V337.402C432.975 332.261 428.807 328.094 423.666 328.094Z" fill="#C43F5C"/>
<path d="M265.841 443.378V699.837C265.841 705.28 262.831 709.695 259.126 709.695H138.924C135.214 709.695 132.209 705.28 132.209 699.837V443.378C132.209 437.935 135.214 433.521 138.924 433.521H259.126C262.813 433.521 265.841 437.935 265.841 443.378Z" fill="#0B1249"/>
<path d="M233.364 443.378V699.837C233.364 705.28 230.359 709.695 226.649 709.695H106.447C102.742 709.695 99.7324 705.28 99.7324 699.837V443.378C99.7324 437.935 102.742 433.521 106.447 433.521H226.649C230.359 433.521 233.364 437.935 233.364 443.378Z" fill="#1A2578"/>
<path d="M61.5345 433.953C63.8868 433.697 66.1817 433.06 68.3289 432.066L72.6518 435.901L75.7684 433.47L78.8833 431.039L76.2024 425.913C77.6862 424.072 78.86 422.001 79.6775 419.782L85.4482 419.439L85.9307 415.516L86.4133 411.594L80.899 409.86C80.6466 407.507 80.0116 405.211 79.019 403.063L82.8544 398.741L80.4231 395.626L78.0019 392.511L72.8781 395.192C71.0356 393.707 68.963 392.534 66.7421 391.718L66.397 385.948L62.4761 385.465L58.5486 384.982L56.8144 390.495C54.4629 390.746 52.168 391.379 50.02 392.368L45.697 388.533L42.5804 390.964L39.4639 393.395L42.1448 398.521C40.6599 400.363 39.4866 402.436 38.6713 404.657L32.9007 405L32.4181 408.923L31.9238 412.845L37.4381 414.58C37.6911 416.932 38.3267 419.228 39.3198 421.376L35.4878 425.699L37.919 428.814L40.3503 431.928L45.4758 429.256C47.3178 430.743 49.3905 431.918 51.6118 432.736L51.9469 438.507L55.8694 438.989L59.7919 439.472L61.5345 433.953ZM45.3133 417.488C44.271 414.747 44.0652 411.759 44.7217 408.9C45.3783 406.042 46.8678 403.443 49.0018 401.431C51.1358 399.42 53.8185 398.086 56.7105 397.6C59.6025 397.113 62.5738 397.495 65.2487 398.697C67.9236 399.899 70.1818 401.868 71.7377 404.354C73.2936 406.84 74.0773 409.731 73.9896 412.663C73.902 415.594 72.9469 418.433 71.2452 420.822C69.5436 423.21 67.1718 425.04 64.4298 426.081C60.7553 427.474 56.6778 427.352 53.0932 425.741C49.5087 424.13 46.7104 421.162 45.3133 417.488V417.488Z" fill="#D95F76"/>
<path d="M600.848 428.727C602.948 429.202 605.111 429.332 607.252 429.111L609.841 433.685L613.24 432.51L616.638 431.339L615.852 426.138C617.673 424.991 619.294 423.554 620.65 421.884L625.718 423.288L627.292 420.059L628.865 416.825L624.634 413.705C625.109 411.606 625.239 409.443 625.018 407.301L629.593 404.712L628.417 401.314L627.246 397.915L622.045 398.702C620.898 396.88 619.461 395.258 617.791 393.899L619.195 388.83L615.966 387.257L612.732 385.683L609.612 389.919C607.513 389.442 605.35 389.311 603.208 389.53L600.619 384.956L597.221 386.132L593.822 387.307L594.609 392.504C592.786 393.652 591.164 395.09 589.806 396.762L584.738 395.353L583.164 398.587L581.591 401.821L585.826 404.941C585.349 407.04 585.218 409.203 585.438 411.345L580.863 413.934L582.039 417.333L583.214 420.731L588.411 419.944C589.559 421.766 590.998 423.386 592.669 424.743L591.242 429.811L594.476 431.385L597.71 432.958L600.848 428.727ZM591.75 409.762C591.664 407.096 592.37 404.463 593.779 402.198C595.189 399.933 597.239 398.137 599.669 397.037C602.1 395.936 604.802 395.582 607.434 396.017C610.066 396.453 612.51 397.659 614.457 399.483C616.404 401.308 617.765 403.668 618.37 406.267C618.975 408.865 618.796 411.585 617.856 414.081C616.915 416.578 615.255 418.74 613.086 420.293C610.917 421.846 608.336 422.721 605.669 422.808C603.897 422.868 602.13 422.579 600.47 421.955C598.81 421.332 597.289 420.388 595.995 419.176C594.7 417.964 593.657 416.509 592.926 414.894C592.194 413.278 591.788 411.534 591.732 409.762H591.75Z" fill="#D95F76"/>
<path d="M135.893 324.463C138.957 326.288 142.299 327.6 145.787 328.346L147.529 336.882L153.476 336.772L159.422 336.658L160.84 328.058C164.297 327.18 167.586 325.743 170.579 323.804L177.847 328.612L181.964 324.321L186.081 320.03L181.004 312.949C182.826 309.882 184.138 306.539 184.887 303.051L193.423 301.312L193.308 295.366L193.199 289.419L184.599 288.006C183.722 284.548 182.285 281.257 180.345 278.263L185.152 270.994L180.862 266.878L176.567 262.761L169.486 267.843C166.422 266.017 163.079 264.706 159.592 263.959L157.899 255.364L151.953 255.479L146.006 255.593L144.588 264.188C141.132 265.068 137.843 266.504 134.85 268.442L127.581 263.639L123.464 267.93L119.347 272.22L124.425 279.301C122.602 282.368 121.292 285.711 120.546 289.2L112.006 290.938L112.12 296.885L112.235 302.831L120.83 304.249C121.708 307.707 123.145 310.998 125.084 313.992L120.276 321.261L124.571 325.378L128.862 329.494L135.893 324.463ZM131.24 289.923C132.467 285.676 134.925 281.888 138.304 279.039C141.683 276.189 145.831 274.405 150.224 273.913C154.617 273.421 159.057 274.242 162.983 276.274C166.909 278.305 170.144 281.455 172.28 285.325C174.416 289.195 175.356 293.611 174.982 298.015C174.608 302.42 172.936 306.614 170.178 310.069C167.421 313.523 163.7 316.082 159.488 317.422C155.276 318.762 150.761 318.823 146.514 317.597C140.819 315.952 136.011 312.112 133.147 306.922C130.283 301.733 129.597 295.618 131.24 289.923V289.923Z" fill="#D95F76"/>
<path d="M436.177 215.948C446.986 215.824 472.313 215.948 494.11 218.971C503.135 220.234 511.46 212.924 511.862 203.25C512.031 199.293 510.984 194.623 507.851 189.239C495.798 168.508 471.435 186.54 471.014 196.74C471.014 196.74 467.3 181.188 452.914 183.15C438.528 185.113 442.123 207.7 442.123 207.7C442.123 207.7 437.6 206.442 434.274 208.592C430.949 210.742 432.367 215.993 436.177 215.948Z" fill="white"/>
<path d="M120.719 184.894C131.519 184.473 156.824 183.878 178.711 186.321C187.768 187.332 195.888 179.798 196.029 170.119C196.084 166.158 194.909 161.519 191.633 156.222C179.013 135.83 155.154 154.525 155.012 164.735C155.012 164.735 150.895 149.265 136.546 151.648C122.197 154.031 126.483 176.482 126.483 176.482C126.483 176.482 121.908 175.352 118.661 177.589C115.413 179.825 116.927 185.04 120.719 184.894Z" fill="white"/>
<path d="M223.96 272.027C236.251 271.053 266.235 269.109 284.34 271.615C284.917 271.697 285.506 271.6 286.028 271.339C286.549 271.078 286.979 270.664 287.259 270.152C287.54 269.641 287.658 269.056 287.598 268.476C287.538 267.895 287.303 267.347 286.924 266.904C285.675 265.467 283.466 264.269 279.605 264.159C279.605 264.159 283.013 247.349 266.77 245.926C250.074 244.444 250.005 262.083 250.005 262.083C250.005 262.083 240.166 252.934 235.551 264.425C235.551 264.425 225.208 260.024 220.598 265.664C220.112 266.259 219.812 266.984 219.736 267.748C219.66 268.512 219.811 269.281 220.169 269.96C220.528 270.639 221.079 271.197 221.753 271.565C222.427 271.932 223.195 272.093 223.96 272.027Z" fill="white"/>
<path d="M589.193 500.068V699.45C589.193 705.113 586.247 709.705 582.615 709.705H464.851C461.219 709.705 458.273 705.131 458.273 699.45V500.068C458.273 494.405 461.219 489.812 464.851 489.812H582.615C586.247 489.812 589.193 494.405 589.193 500.068Z" fill="#1A2578"/>
<path d="M557.393 500.068V699.45C557.393 705.113 554.451 709.705 550.815 709.705H433.033C429.401 709.705 426.455 705.131 426.455 699.45V500.068C426.455 494.405 429.401 489.812 433.033 489.812H550.797C554.433 489.812 557.393 494.405 557.393 500.068Z" fill="#2836A5"/>
<path d="M172.759 571.158V642.15C172.759 647.594 169.639 652.008 165.788 652.008H40.9888C37.1373 652.008 34.0176 647.594 34.0176 642.15V571.158C34.0176 565.715 37.1373 561.301 40.9888 561.301H165.788C169.639 561.301 172.759 565.715 172.759 571.158Z" fill="#A22641"/>
<path d="M139.044 570.858V641.85C139.044 647.293 135.924 651.707 132.073 651.707H7.27387C3.42236 651.707 0.302734 647.293 0.302734 641.85V570.858C0.302734 565.414 3.42236 561 7.27387 561H132.073C135.924 561 139.044 565.414 139.044 570.858Z" fill="#C43F5C"/>
<path d="M189.431 358.237C189.431 358.237 190.771 369.137 189.206 369.622C187.642 370.107 193.287 381.927 196.031 374.814C196.996 372.33 193.616 358.347 189.389 356.215C185.163 354.083 189.431 358.237 189.431 358.237Z" fill="#090028"/>
<path d="M189.374 355.432C189.374 355.432 193.217 365.12 192.325 367.219C192.132 367.606 191.855 367.943 191.514 368.207C191.172 368.471 190.776 368.654 190.353 368.743L191.877 374.611L184.59 375.48L180.377 358.766C180.377 358.766 181.411 354.137 181.456 354.306C181.502 354.476 189.374 355.432 189.374 355.432Z" fill="#FF6160"/>
<path d="M189.2 364.315C189.188 364.316 189.176 364.313 189.166 364.307C189.156 364.3 189.148 364.29 189.145 364.278C189.145 364.241 189.145 364.205 189.145 364.191C189.415 364.031 189.47 363.477 189.484 363.276C189.01 363.089 188.631 362.722 188.427 362.256C188.22 361.748 188.166 361.19 188.271 360.651C188.271 360.619 188.308 360.605 188.331 360.619C188.345 360.628 188.355 360.641 188.361 360.657C188.367 360.672 188.368 360.689 188.363 360.705C188.271 361.209 188.321 361.729 188.509 362.206C188.608 362.427 188.75 362.626 188.927 362.792C189.104 362.957 189.312 363.086 189.539 363.171H189.584V363.23C189.584 363.262 189.584 364.058 189.195 364.273L189.2 364.315Z" fill="#AE253D"/>
<path d="M190.857 370.742L190.354 368.743C190.354 368.743 186.924 369.397 184.518 368.61C184.518 368.61 188.017 370.609 190.857 370.742Z" fill="#AE253D"/>
<path d="M183.721 362.101C183.706 362.108 183.689 362.111 183.673 362.111C183.656 362.111 183.64 362.108 183.625 362.101C183.609 362.093 183.596 362.082 183.585 362.068C183.574 362.055 183.566 362.039 183.561 362.023C183.557 362.006 183.555 361.988 183.558 361.971C183.56 361.954 183.566 361.938 183.574 361.923C183.574 361.923 184.805 359.814 186.607 360.642C186.638 360.658 186.661 360.684 186.673 360.716C186.685 360.749 186.684 360.784 186.671 360.816C186.664 360.832 186.653 360.846 186.64 360.858C186.627 360.87 186.612 360.879 186.595 360.885C186.579 360.891 186.561 360.894 186.544 360.893C186.526 360.892 186.509 360.887 186.493 360.88C184.915 360.152 183.849 361.978 183.803 362.055C183.783 362.081 183.753 362.097 183.721 362.101V362.101Z" fill="#090028"/>
<path d="M188.917 360.51C188.9 360.517 188.881 360.521 188.862 360.521C188.843 360.521 188.825 360.517 188.807 360.51C188.779 360.489 188.76 360.459 188.754 360.425C188.748 360.39 188.756 360.355 188.775 360.327C188.812 360.276 189.69 359.014 190.582 359.453C190.597 359.46 190.611 359.471 190.622 359.484C190.634 359.497 190.642 359.511 190.648 359.528C190.653 359.544 190.656 359.561 190.655 359.578C190.654 359.595 190.649 359.611 190.642 359.627C190.634 359.642 190.624 359.656 190.611 359.667C190.598 359.678 190.583 359.687 190.567 359.692C190.551 359.698 190.534 359.7 190.517 359.699C190.5 359.698 190.483 359.694 190.468 359.686C189.791 359.352 188.999 360.468 188.99 360.478C188.969 360.495 188.944 360.506 188.917 360.51Z" fill="#090028"/>
<path d="M187.58 365.33C187.621 365.33 190.174 365.005 190.174 365.005C190.174 365.005 189.954 366.094 189.007 366.212C188.06 366.331 187.58 365.33 187.58 365.33Z" fill="#FBFDFC"/>
<path d="M186.346 356.356L184.059 354.375C184.059 354.375 187.233 355.45 187.023 355.573C186.767 355.807 186.54 356.069 186.346 356.356V356.356Z" fill="#FF6160"/>
<path d="M180.934 356.448C180.934 356.448 182.307 360.075 191.455 358.703C191.455 358.703 192.224 352.669 185.275 352.363C178.327 352.056 178.917 357.189 179.041 357.111C179.164 357.033 180.934 356.448 180.934 356.448Z" fill="#090028"/>
<path d="M182.765 358.227C182.177 359.795 181.703 361.403 181.347 363.039C181.347 363.039 188.057 378.002 181.804 378.555L180.725 378.798C175.368 379.992 176.324 367.563 174.956 361.416C174.106 357.564 177.843 352.56 181.429 354.179C185.015 355.798 182.765 358.227 182.765 358.227Z" fill="#090028"/>
<path d="M183.332 364.59C183.431 364.984 183.412 365.4 183.275 365.783C183.139 366.167 182.892 366.501 182.566 366.744C182.239 366.987 181.848 367.128 181.442 367.149C181.035 367.17 180.632 367.07 180.282 366.862C179.932 366.653 179.652 366.346 179.477 365.979C179.302 365.611 179.24 365.2 179.299 364.797C179.357 364.394 179.534 364.018 179.807 363.716C180.079 363.413 180.435 363.199 180.829 363.098C181.092 363.032 181.364 363.018 181.632 363.057C181.9 363.096 182.157 363.187 182.39 363.325C182.622 363.464 182.825 363.647 182.986 363.864C183.148 364.081 183.265 364.327 183.332 364.59V364.59Z" fill="#FF6160"/>
<path d="M181.497 366.375C181.314 366.416 181.122 366.397 180.951 366.319C180.78 366.241 180.64 366.11 180.55 365.945C180.45 365.793 180.403 365.611 180.418 365.43C180.433 365.248 180.509 365.077 180.633 364.943C180.764 364.805 180.933 364.71 181.118 364.667C181.304 364.625 181.498 364.638 181.676 364.705C181.555 364.527 181.375 364.398 181.168 364.339C180.853 364.278 180.527 364.336 180.253 364.504C180.238 364.514 180.221 364.517 180.203 364.514C180.186 364.51 180.171 364.5 180.161 364.486C180.152 364.471 180.148 364.453 180.152 364.436C180.155 364.419 180.165 364.404 180.18 364.394C180.477 364.208 180.833 364.143 181.177 364.211C181.33 364.255 181.472 364.332 181.593 364.436C181.714 364.541 181.811 364.67 181.877 364.815L181.987 365.021L181.785 364.902C181.615 364.805 181.418 364.766 181.224 364.79C181.029 364.814 180.848 364.9 180.706 365.034C180.604 365.148 180.541 365.292 180.529 365.444C180.517 365.596 180.555 365.748 180.637 365.876C180.714 366.018 180.835 366.131 180.982 366.198C181.129 366.264 181.294 366.279 181.451 366.242C181.467 366.242 181.482 366.246 181.494 366.255C181.507 366.264 181.516 366.277 181.52 366.292C181.524 366.307 181.523 366.322 181.517 366.336C181.512 366.351 181.501 366.362 181.488 366.37L181.497 366.375Z" fill="#AE253D"/>
<path d="M189.375 353.639C189.375 353.639 193.259 356.182 194.786 365.783L190.436 356.987L189.375 353.639Z" fill="#090028"/>
<path d="M202.59 496.667L190.834 492.99L195.138 479.212L207.37 481.261L202.59 496.667Z" fill="#FF6160"/>
<path d="M198.897 458.082L204.346 447.009L192.62 441.239L187.171 452.312L198.897 458.082Z" fill="#FF6160"/>
<path d="M184.315 437.983C184.585 437.983 194.556 442.397 194.556 442.397L197.758 444.474C197.758 444.474 192.9 477.55 191.999 486.383C191.999 486.383 199.03 491.341 206.147 491.52C206.147 491.52 220.84 440.311 220.84 433.807C220.84 427.302 189.593 411.892 189.593 411.892L175.377 420.098C175.377 420.098 154.01 421.854 149.098 425.184C144.185 428.514 187.238 448.019 187.238 448.019L184.315 437.983Z" fill="#FCE6CF"/>
<path d="M195.297 441.162C195.297 441.162 171.178 426.781 162.889 424.539C154.6 422.298 148.645 424.192 147.744 426.826C146.843 429.461 145.941 436.83 147.744 439.264C149.546 441.697 181.003 453.325 188.212 455.306C188.212 455.287 194.63 447.831 195.297 441.162Z" fill="#FCE6CF"/>
<path d="M147.927 426.635C147.894 426.641 147.86 426.641 147.826 426.635C147.773 426.607 147.731 426.56 147.712 426.503C147.692 426.446 147.696 426.383 147.721 426.328C148.348 425.061 150.621 423.904 154.482 422.888C158.033 422.013 161.635 421.361 165.268 420.935C165.323 420.935 170.894 420.254 171.214 420.478C171.265 420.511 171.299 420.563 171.311 420.622C171.323 420.682 171.312 420.743 171.278 420.793C171.249 420.835 171.206 420.866 171.158 420.882C171.109 420.897 171.057 420.897 171.009 420.88C169.865 420.707 150.017 422.669 148.11 426.516C148.092 426.549 148.066 426.578 148.034 426.599C148.002 426.619 147.965 426.632 147.927 426.635Z" fill="#090028"/>
<path d="M192.892 448.317C192.849 448.316 192.806 448.304 192.769 448.28C192.718 448.248 192.682 448.196 192.669 448.137C192.656 448.078 192.668 448.016 192.7 447.965C194.02 445.841 194.836 443.444 195.088 440.957C184.466 434.085 173.271 428.141 161.628 423.191C161.58 423.162 161.545 423.118 161.528 423.065C161.512 423.013 161.514 422.956 161.536 422.905C161.558 422.855 161.597 422.813 161.647 422.789C161.696 422.765 161.753 422.76 161.806 422.775C181.58 431.232 195.317 440.559 195.454 440.655L195.559 440.724V440.852C195.33 443.465 194.484 445.986 193.089 448.207C193.069 448.241 193.04 448.269 193.005 448.288C192.971 448.307 192.932 448.317 192.892 448.317V448.317Z" fill="#090028"/>
<path d="M165.922 424.984C165.887 424.983 165.852 424.975 165.821 424.96C165.789 424.945 165.761 424.924 165.739 424.897C165.018 424.08 164.174 423.381 163.237 422.825C163.191 422.792 163.159 422.742 163.147 422.687C163.136 422.632 163.145 422.574 163.174 422.525C163.202 422.476 163.248 422.439 163.302 422.422C163.355 422.405 163.414 422.408 163.465 422.431C164.454 423.015 165.343 423.751 166.1 424.613C166.137 424.661 166.153 424.722 166.146 424.782C166.138 424.842 166.107 424.896 166.059 424.934C166.02 424.965 165.972 424.983 165.922 424.984V424.984Z" fill="#090028"/>
<path d="M215.539 457.667H215.484C215.426 457.653 215.375 457.617 215.343 457.565C215.312 457.514 215.301 457.452 215.315 457.393C215.366 457.196 220.036 437.861 220.617 434.522C221.175 431.32 214.304 426.64 214.213 426.595C214.184 426.58 214.159 426.559 214.139 426.533C214.119 426.508 214.105 426.479 214.097 426.447C214.089 426.416 214.088 426.383 214.093 426.352C214.099 426.32 214.111 426.29 214.13 426.263C214.148 426.236 214.172 426.214 214.199 426.197C214.227 426.18 214.258 426.169 214.29 426.165C214.322 426.161 214.354 426.164 214.385 426.173C214.416 426.182 214.445 426.198 214.469 426.22C214.762 426.416 221.651 431.114 221.042 434.6C220.461 437.943 215.786 457.297 215.736 457.471C215.729 457.521 215.707 457.567 215.671 457.602C215.635 457.638 215.589 457.661 215.539 457.667V457.667Z" fill="#090028"/>
<path d="M200.603 446.424C200.559 446.424 200.516 446.411 200.479 446.387L194.931 442.842C194.905 442.826 194.883 442.805 194.865 442.781C194.848 442.756 194.836 442.728 194.829 442.699C194.823 442.669 194.823 442.639 194.828 442.609C194.834 442.58 194.845 442.551 194.862 442.526C194.878 442.501 194.899 442.48 194.923 442.463C194.947 442.446 194.974 442.434 195.003 442.427C195.032 442.421 195.062 442.42 195.091 442.425C195.121 442.431 195.148 442.442 195.173 442.458L200.726 446.003C200.777 446.036 200.813 446.087 200.826 446.146C200.839 446.206 200.828 446.267 200.795 446.318C200.775 446.351 200.747 446.378 200.713 446.397C200.679 446.415 200.641 446.424 200.603 446.424V446.424Z" fill="#090028"/>
<path d="M206.146 491.75H206.119C205.707 491.695 195.996 490.345 191.843 486.558L191.756 486.476V486.357L195.95 455.252L197.195 444.196C197.197 444.166 197.205 444.136 197.219 444.11C197.233 444.083 197.253 444.059 197.276 444.04C197.3 444.021 197.327 444.008 197.357 444C197.386 443.992 197.416 443.99 197.446 443.995C197.506 444.002 197.561 444.032 197.599 444.079C197.636 444.126 197.654 444.186 197.647 444.246L196.403 455.311L192.227 486.288C196.344 489.925 206.069 491.278 206.165 491.292C206.195 491.296 206.224 491.305 206.25 491.32C206.276 491.335 206.299 491.355 206.318 491.378C206.336 491.402 206.349 491.43 206.357 491.459C206.364 491.488 206.366 491.519 206.361 491.548C206.354 491.602 206.329 491.651 206.29 491.687C206.251 491.724 206.2 491.746 206.146 491.75Z" fill="#090028"/>
<path d="M151.203 439.689C151.154 439.689 151.108 439.673 151.07 439.643C148.472 437.731 148.49 436.08 148.495 436.011C148.495 435.981 148.501 435.951 148.513 435.924C148.524 435.896 148.542 435.871 148.564 435.851C148.586 435.83 148.611 435.814 148.64 435.804C148.668 435.794 148.698 435.79 148.728 435.791C148.758 435.792 148.787 435.799 148.814 435.811C148.842 435.823 148.866 435.84 148.887 435.862C148.907 435.884 148.923 435.909 148.934 435.937C148.944 435.965 148.949 435.995 148.947 436.025C148.947 436.048 148.947 437.525 151.34 439.277C151.378 439.306 151.407 439.346 151.421 439.392C151.435 439.438 151.435 439.487 151.42 439.532C151.404 439.578 151.375 439.617 151.336 439.646C151.297 439.674 151.251 439.689 151.203 439.689Z" fill="#090028"/>
<path d="M153.521 439.259C153.485 439.258 153.449 439.248 153.416 439.231C150.567 437.722 150.347 436.084 150.338 436.029C150.334 436 150.336 435.97 150.344 435.941C150.352 435.913 150.365 435.886 150.383 435.862C150.402 435.839 150.425 435.819 150.45 435.805C150.476 435.79 150.505 435.781 150.535 435.778C150.594 435.771 150.654 435.788 150.702 435.825C150.75 435.861 150.782 435.915 150.791 435.974C150.791 436.002 151.024 437.461 153.631 438.843C153.684 438.872 153.723 438.921 153.741 438.979C153.759 439.037 153.754 439.099 153.727 439.154C153.705 439.188 153.675 439.216 153.639 439.234C153.602 439.253 153.562 439.261 153.521 439.259Z" fill="#090028"/>
<path d="M192.173 392.714L187.732 374.069H175.637C174.352 374.069 172.582 374.916 172.508 374.952C167.651 377.537 154.294 392.256 154.962 401.533C155.565 409.954 167.687 408.28 179.768 410.224L182.453 399.058L178.084 397.887L192.173 392.714Z" fill="#D95F76"/>
<path d="M188.166 395.468V374.069H200.265C201.55 374.069 203.32 374.916 203.394 374.952C208.251 377.537 223.278 392.723 222.605 402C221.997 410.421 207.826 410.082 201.184 412.132L197.493 398.779L197.818 398.102L188.166 395.468Z" fill="#D95F76"/>
<path d="M207.776 398.396L207.625 421.724C207.625 421.724 186.496 425.585 167.687 420.581C167.23 420.457 168.57 401.291 168.57 401.291C168.57 401.291 168.57 397.577 170.532 396.424C172.494 395.271 188.491 388.19 188.87 388.19C189.25 388.19 207.776 398.396 207.776 398.396Z" fill="#D95F76"/>
<path d="M187.521 380.556C187.581 380.556 187.639 380.532 187.682 380.489C187.725 380.446 187.749 380.388 187.749 380.328C187.749 380.267 187.725 380.209 187.682 380.166C187.639 380.123 187.581 380.099 187.521 380.099C180.577 379.641 178.313 374.907 178.29 374.857C178.277 374.829 178.26 374.805 178.238 374.784C178.216 374.764 178.19 374.748 178.162 374.738C178.134 374.728 178.104 374.723 178.074 374.725C178.044 374.726 178.015 374.734 177.988 374.747C177.933 374.772 177.89 374.818 177.868 374.874C177.847 374.931 177.849 374.994 177.874 375.049C177.896 375.099 180.266 380.081 187.479 380.538L187.521 380.556Z" fill="#090028"/>
<path d="M195.174 374.069H179.873C179.873 374.069 182.618 378.859 187.924 378.84C190.353 378.831 192.946 377.939 195.174 374.069Z" fill="#FF6160"/>
<path d="M185.746 404.931C184.776 403.948 185.673 402.699 185.673 402.699C185.311 401.208 185.709 400.558 185.709 400.558C185.709 400.558 189.794 401.77 192.113 402.626C193.421 402.429 193.883 401.789 193.883 401.789L193.915 401.844C193.943 400.714 193.975 399.291 193.975 399.136C193.975 398.861 194.405 398.431 195.082 399.287C195.794 400.305 196.455 401.358 197.062 402.443L200.443 400.458L203.187 409.967C203.187 409.967 194.99 411.129 193.728 411.216C192.465 411.303 188.074 410.274 186.766 409.19C185.458 408.106 185.741 407.141 185.741 407.141C185.47 406.836 185.32 406.443 185.321 406.035C185.322 405.627 185.473 405.234 185.746 404.931Z" fill="#F78C63"/>
<path d="M194.657 398.637V401.596C194.368 401.982 193.979 402.283 193.533 402.467C193.087 402.65 192.6 402.71 192.123 402.639L190.855 402.182L191.853 397.9L194.657 398.637Z" fill="#AE253D"/>
<path d="M188.45 404.158C188.482 404.158 188.513 404.148 188.54 404.129C188.566 404.11 188.586 404.084 188.596 404.053C188.602 404.034 188.605 404.014 188.603 403.993C188.602 403.973 188.596 403.954 188.587 403.936C188.577 403.918 188.564 403.902 188.549 403.889C188.533 403.876 188.515 403.867 188.495 403.861C187.547 403.505 186.629 403.072 185.751 402.566C185.716 402.546 185.674 402.541 185.635 402.551C185.595 402.561 185.561 402.586 185.54 402.621C185.531 402.639 185.525 402.658 185.522 402.678C185.52 402.697 185.522 402.717 185.527 402.737C185.533 402.756 185.542 402.774 185.555 402.789C185.567 402.805 185.582 402.818 185.6 402.827C186.495 403.348 187.433 403.79 188.404 404.149L188.45 404.158Z" fill="#AE253D"/>
<path d="M188.45 406.083C188.486 406.084 188.52 406.072 188.548 406.049C188.576 406.026 188.594 405.995 188.601 405.96C188.608 405.92 188.598 405.879 188.575 405.845C188.552 405.812 188.517 405.789 188.477 405.781C187.548 405.589 186.654 405.258 185.824 404.798C185.789 404.778 185.747 404.772 185.708 404.782C185.669 404.793 185.635 404.818 185.614 404.853C185.594 404.887 185.589 404.928 185.599 404.967C185.609 405.006 185.634 405.038 185.669 405.059C186.525 405.54 187.451 405.884 188.413 406.079L188.45 406.083Z" fill="#AE253D"/>
<path d="M188.111 408.279C188.148 408.278 188.183 408.264 188.209 408.239C188.236 408.214 188.253 408.181 188.257 408.145C188.261 408.108 188.251 408.072 188.231 408.042C188.21 408.012 188.179 407.991 188.143 407.982C187.326 407.781 186.545 407.454 185.829 407.012C185.795 406.991 185.754 406.984 185.714 406.993C185.675 407.001 185.641 407.025 185.618 407.058C185.607 407.075 185.6 407.094 185.596 407.113C185.593 407.133 185.593 407.153 185.597 407.173C185.601 407.192 185.61 407.211 185.621 407.227C185.633 407.244 185.647 407.258 185.664 407.268C186.41 407.732 187.226 408.073 188.079 408.279H188.111Z" fill="#AE253D"/>
<path d="M198.014 400.632L202.666 399.475C202.666 399.475 205.291 405.984 205.291 406.199C205.291 406.414 203.979 412.145 203.814 412.145C203.231 411.656 202.678 411.132 202.158 410.576L198.014 400.632Z" fill="#4CB7D8"/>
<path d="M206.55 396.392L208.837 396.027C208.909 396.013 208.974 395.972 209.016 395.913C209.059 395.853 209.077 395.779 209.066 395.706C209.054 395.634 209.013 395.569 208.953 395.526C208.893 395.483 208.819 395.466 208.746 395.478L206.811 395.789L202.488 389.138C202.469 389.107 202.444 389.08 202.414 389.059C202.385 389.038 202.351 389.024 202.316 389.016C202.28 389.008 202.244 389.008 202.208 389.015C202.173 389.021 202.139 389.035 202.109 389.055C202.078 389.075 202.052 389.1 202.031 389.13C202.011 389.159 201.996 389.193 201.989 389.228C201.981 389.263 201.98 389.3 201.987 389.335C201.993 389.371 202.007 389.405 202.026 389.435L206.55 396.392Z" fill="#090028"/>
<path d="M205.708 380.153C205.672 380.152 205.636 380.143 205.603 380.127C205.571 380.11 205.542 380.086 205.521 380.057C203.801 377.582 202.319 377.578 202.319 377.578C202.258 377.578 202.2 377.553 202.157 377.511C202.114 377.468 202.09 377.409 202.09 377.349C202.09 377.288 202.114 377.23 202.157 377.187C202.2 377.144 202.258 377.12 202.319 377.12C202.401 377.12 204.048 377.152 205.882 379.791C205.899 379.816 205.911 379.844 205.918 379.873C205.924 379.902 205.924 379.932 205.919 379.962C205.913 379.991 205.902 380.019 205.885 380.044C205.869 380.069 205.847 380.091 205.822 380.107C205.79 380.133 205.75 380.149 205.708 380.153V380.153Z" fill="#090028"/>
<path d="M205.218 382.472C205.176 382.472 205.135 382.461 205.098 382.439C205.062 382.417 205.033 382.386 205.013 382.349C203.695 379.696 202.236 379.435 202.222 379.43C202.162 379.422 202.107 379.39 202.07 379.341C202.033 379.292 202.017 379.23 202.026 379.17C202.034 379.109 202.066 379.054 202.115 379.017C202.164 378.98 202.226 378.964 202.286 378.973C202.355 378.973 203.988 379.252 205.424 382.138C205.438 382.165 205.445 382.195 205.447 382.225C205.449 382.255 205.445 382.285 205.435 382.313C205.426 382.342 205.41 382.368 205.39 382.391C205.37 382.413 205.346 382.432 205.319 382.445C205.289 382.463 205.254 382.472 205.218 382.472Z" fill="#090028"/>
<path d="M192.369 401.035C192.333 401.045 192.295 401.041 192.262 401.024C192.229 401.007 192.204 400.979 192.19 400.945C192.177 400.91 192.176 400.872 192.189 400.837C192.202 400.803 192.227 400.774 192.259 400.756C193.116 400.213 193.926 399.601 194.684 398.927C194.699 398.913 194.716 398.903 194.735 398.897C194.754 398.89 194.774 398.888 194.794 398.889C194.814 398.89 194.834 398.895 194.852 398.904C194.869 398.913 194.886 398.925 194.899 398.94C194.912 398.955 194.922 398.973 194.929 398.992C194.935 399.011 194.938 399.031 194.936 399.051C194.935 399.071 194.93 399.09 194.921 399.108C194.912 399.126 194.9 399.142 194.885 399.155C194.116 399.847 193.29 400.473 192.415 401.026L192.369 401.035Z" fill="#AE253D"/>
<path d="M192.753 402.919C192.718 402.927 192.682 402.921 192.65 402.905C192.619 402.888 192.594 402.861 192.58 402.828C192.564 402.791 192.565 402.75 192.58 402.713C192.596 402.676 192.625 402.647 192.662 402.631C193.533 402.251 194.341 401.74 195.059 401.117C195.074 401.104 195.091 401.093 195.11 401.086C195.128 401.08 195.148 401.076 195.168 401.077C195.188 401.078 195.208 401.083 195.226 401.091C195.244 401.1 195.26 401.112 195.274 401.126C195.287 401.141 195.298 401.158 195.305 401.177C195.312 401.196 195.315 401.216 195.314 401.236C195.313 401.256 195.308 401.275 195.3 401.293C195.291 401.312 195.279 401.328 195.265 401.341C194.522 401.989 193.685 402.518 192.781 402.91L192.753 402.919Z" fill="#AE253D"/>
<path d="M193.536 405.002C193.503 405.008 193.468 405.003 193.437 404.987C193.406 404.971 193.382 404.946 193.367 404.915C193.359 404.896 193.354 404.877 193.354 404.857C193.353 404.836 193.356 404.816 193.364 404.798C193.371 404.779 193.382 404.762 193.396 404.747C193.41 404.733 193.426 404.721 193.445 404.713C194.204 404.347 194.901 403.866 195.512 403.286C195.526 403.271 195.543 403.26 195.561 403.252C195.58 403.243 195.6 403.239 195.62 403.239C195.64 403.239 195.66 403.243 195.679 403.252C195.697 403.26 195.714 403.271 195.727 403.286C195.742 403.3 195.753 403.317 195.761 403.335C195.768 403.354 195.772 403.374 195.772 403.394C195.772 403.414 195.768 403.434 195.761 403.452C195.753 403.47 195.742 403.487 195.727 403.501C195.09 404.105 194.361 404.605 193.568 404.983L193.536 405.002Z" fill="#AE253D"/>
<path d="M172.755 396.239L170.436 396.358C170.362 396.361 170.29 396.335 170.236 396.285C170.181 396.236 170.148 396.167 170.143 396.093C170.141 396.057 170.147 396.02 170.159 395.986C170.171 395.952 170.19 395.92 170.215 395.893C170.24 395.867 170.27 395.845 170.303 395.83C170.336 395.815 170.372 395.806 170.408 395.805L172.371 395.704L175.22 388.303C175.252 388.242 175.305 388.195 175.37 388.171C175.434 388.147 175.505 388.147 175.569 388.172C175.633 388.197 175.685 388.245 175.717 388.306C175.748 388.368 175.755 388.438 175.737 388.504L172.755 396.239Z" fill="#090028"/>
<path d="M182.453 399.067L180.061 410.503C180.061 410.503 175.139 406.501 175.139 406.061C175.139 405.622 176.698 400.293 176.863 400.193C177.028 400.092 182.453 399.067 182.453 399.067Z" fill="#4CB7D8"/>
<path d="M180.22 410.82H179.977C175.699 410.402 171.508 409.338 167.549 407.663C167.516 407.649 167.486 407.629 167.46 407.603C167.435 407.577 167.415 407.547 167.401 407.513C167.387 407.479 167.381 407.443 167.381 407.407C167.381 407.371 167.389 407.335 167.403 407.302C167.417 407.269 167.437 407.238 167.463 407.213C167.489 407.188 167.52 407.168 167.553 407.154C167.587 407.14 167.623 407.133 167.659 407.134C167.695 407.134 167.731 407.141 167.764 407.156C171.593 408.765 175.637 409.807 179.767 410.248L181.816 399.448L172.471 396.246C172.402 396.222 172.345 396.171 172.313 396.105C172.282 396.039 172.277 395.963 172.302 395.894C172.326 395.825 172.377 395.768 172.443 395.736C172.509 395.705 172.585 395.7 172.654 395.725L182.452 399.077L180.22 410.82Z" fill="#090028"/>
<path d="M199.232 410.82H199.475C203.753 410.402 207.944 409.338 211.903 407.663C211.936 407.649 211.966 407.629 211.992 407.603C212.017 407.577 212.037 407.547 212.051 407.513C212.064 407.479 212.071 407.443 212.071 407.407C212.071 407.371 212.063 407.335 212.049 407.302C212.035 407.269 212.015 407.238 211.989 407.213C211.963 407.188 211.932 407.168 211.899 407.154C211.865 407.14 211.829 407.133 211.793 407.134C211.757 407.134 211.721 407.141 211.688 407.156C207.859 408.765 203.815 409.807 199.685 410.248L197.636 399.448L206.981 396.246C207.05 396.222 207.107 396.171 207.139 396.105C207.17 396.039 207.175 395.963 207.15 395.894C207.126 395.825 207.075 395.768 207.009 395.736C206.943 395.705 206.867 395.7 206.798 395.725L197 399.077L199.232 410.82Z" fill="#090028"/>
<path d="M211.989 507.76L188.66 496.553L190.902 491.892C190.902 491.892 193.674 490.469 195.704 492.853C195.704 492.853 198.307 497.427 203.33 495.812L210.09 503.639C210.09 503.639 212.753 506.173 211.989 507.76Z" fill="#E2F2F1"/>
<path d="M211.362 509.409L187.768 498.069C187.719 498.045 187.676 498.013 187.641 497.973C187.605 497.933 187.578 497.887 187.56 497.836C187.542 497.786 187.535 497.733 187.537 497.679C187.54 497.626 187.554 497.574 187.577 497.525L188.298 496.025C188.345 495.927 188.429 495.853 188.53 495.817C188.632 495.781 188.744 495.787 188.842 495.834L212.436 507.174C212.678 507.29 212.864 507.498 212.952 507.751C213.041 508.004 213.026 508.282 212.91 508.523L212.711 508.936C212.595 509.177 212.388 509.363 212.135 509.452C211.882 509.54 211.604 509.525 211.362 509.409Z" fill="#090028"/>
<path d="M168.017 423.182H210.155C211.542 423.182 212.666 422.057 212.666 420.67V397.982C212.666 396.595 211.542 395.471 210.155 395.471H168.017C166.63 395.471 165.506 396.595 165.506 397.982V420.67C165.506 422.057 166.63 423.182 168.017 423.182Z" fill="#2A1968"/>
<path d="M186.721 406.99C186.721 406.617 186.831 406.253 187.038 405.943C187.245 405.633 187.54 405.392 187.884 405.249C188.228 405.106 188.607 405.069 188.973 405.142C189.339 405.214 189.674 405.394 189.938 405.657C190.201 405.921 190.381 406.257 190.454 406.622C190.526 406.988 190.489 407.367 190.346 407.711C190.204 408.056 189.962 408.35 189.652 408.557C189.342 408.764 188.978 408.875 188.605 408.875C188.358 408.875 188.112 408.827 187.883 408.732C187.654 408.638 187.446 408.499 187.271 408.324C187.096 408.149 186.957 407.941 186.863 407.712C186.768 407.483 186.72 407.238 186.721 406.99V406.99Z" fill="white"/>
<g filter="url(#filter0_d_18816_8534)">
<path d="M544.736 449.103L540.953 450.736L536.745 452.73C536.745 452.73 530.213 453.864 530.117 453.846L530.661 454.816C522.555 455.818 497.004 456.865 492.809 457.336C490.28 457.615 487.851 460.762 486.318 463.214L488.395 464.618C488.395 464.618 510.708 463.635 510.662 464.106C510.662 464.252 510.022 466.466 509.043 469.366C522.825 470.281 542.124 470.199 545.706 464.518C548.647 459.861 545.779 453.174 544.736 449.103Z" fill="white"/>
<path d="M458.658 548.656L475.615 548.884L475.857 533.035L458.969 530.944L458.658 548.656Z" fill="white"/>
<path d="M510.785 492.731C510.785 492.731 525.382 492.974 535.61 492.622C538.894 492.512 541.817 492.741 543.546 492.356C550.668 490.774 552.42 468.547 544.337 454.93C536.255 441.312 507.963 483.126 507.963 483.126L510.785 492.731Z" fill="#BF0830"/>
<path d="M484.373 549.255L501.325 549.489L501.572 533.634L484.684 531.544L484.373 549.255Z" fill="white"/>
<path d="M495.068 462.985C495.068 462.985 459.215 465.272 458.181 469.417C457.148 473.561 454.183 517.579 456.397 536.356C456.397 536.356 470.001 537.294 476.524 535.716L478.111 489.928L488.847 488.693L513.447 459.12L495.068 462.985Z" fill="#890421"/>
<path d="M511.615 462C511.615 462 483.964 469.804 482.93 473.943C481.896 478.083 478.95 517.367 481.169 536.153C481.169 536.153 495.806 536.99 502.302 535.412L504.054 492.217L510.362 492.437L525.662 465.518L511.615 462Z" fill="#BF0830"/>
<path d="M494.205 536.964C500.668 536.964 502.974 535.994 503.083 535.944L503.225 535.88L504.922 492.425L502.251 493.683L502.461 494.14L504.392 493.225L502.74 535.532C502.04 535.775 498.688 536.74 490.77 536.374V536.873C492.014 536.941 493.162 536.964 494.205 536.964Z" fill="#090028"/>
<path d="M500.265 527.597C500.956 524.935 501.152 498.98 501.18 497.864H500.672C500.672 498.134 500.466 524.852 499.789 527.464L500.265 527.597Z" fill="#090028"/>
<path d="M474.571 490.903C477.846 489.841 482.347 489.681 482.407 489.681V489.183C482.361 489.183 477.782 489.347 474.434 490.427L474.571 490.903Z" fill="#090028"/>
<path d="M467.194 536.871C470.342 536.9 473.484 536.593 476.566 535.956L476.754 535.911L478.355 489.61L476.31 491.257L476.621 491.646L477.815 490.685L476.265 535.513C473.119 536.136 469.916 536.425 466.709 536.373V536.871H467.194Z" fill="#090028"/>
<path d="M474.141 528.562C474.827 524.541 474.173 497.338 474.141 496.181H473.643C473.643 496.464 474.324 524.495 473.643 528.47L474.141 528.562Z" fill="#090028"/>
<path d="M521.768 493.197C528.136 493.197 535.77 492.982 544.356 492.333L544.319 491.839C518.745 493.765 501.591 491.839 501.422 491.839L501.367 492.333C501.477 492.347 509.125 493.197 521.768 493.197Z" fill="#090028"/>
<path d="M513.021 448.365C512.527 448.365 492.666 456.901 492.666 456.901L496.668 464.558L507.816 462.111L513.021 448.365Z" fill="#2A1968"/>
<path d="M541.789 412.769C541.789 412.769 550.233 412.471 554.268 414.758C560.283 418.166 558.137 437.689 558.137 437.689C558.137 437.689 553.028 434.899 552.717 433.97C552.406 433.042 541.789 412.769 541.789 412.769Z" fill="#2A1968"/>
<path d="M543.84 455.145H543.808L537.596 456.567C537.535 456.581 537.472 456.571 537.419 456.538C537.366 456.505 537.329 456.452 537.315 456.391C537.301 456.331 537.311 456.267 537.344 456.214C537.377 456.161 537.43 456.124 537.491 456.11L543.707 454.687C543.737 454.681 543.767 454.68 543.797 454.685C543.827 454.69 543.855 454.701 543.881 454.717C543.906 454.733 543.928 454.754 543.945 454.779C543.963 454.804 543.975 454.832 543.981 454.861C543.998 454.918 543.992 454.978 543.966 455.031C543.94 455.083 543.895 455.124 543.84 455.145V455.145Z" fill="#090028"/>
<path d="M547.087 451.457L543.305 453.095L539.096 455.089C539.096 455.089 532.564 456.223 532.468 456.201L533.013 457.175C524.907 458.177 499.355 459.224 495.161 459.691C492.631 459.974 490.202 463.117 488.67 465.573L490.747 466.977C490.747 466.977 513.06 465.994 513.014 466.461C513.014 466.611 512.369 468.825 511.395 471.726C525.172 472.64 544.471 472.558 548.057 466.877C550.989 462.206 548.13 455.519 547.087 451.457Z" fill="#F9B59D"/>
<path d="M549.964 414.293C545.165 413.629 532.499 413.172 532.499 413.172C532.499 413.172 530.82 413.629 531.356 413.364C517.372 415.834 515.826 426.204 515.826 426.204L508.997 456.174L501.399 456.586C498.943 461.247 500.745 473.813 500.745 473.813L537.545 477.961C537.545 477.961 545.499 479.27 552.228 470.643C556.674 464.934 558.174 447.41 558.174 434.607C558.188 434.607 557.424 415.322 549.964 414.293Z" fill="#2A1968"/>
<path d="M446.893 437.501H481.931L494.149 468.62H459.115L446.893 437.501Z" fill="#FCE6CF"/>
<path d="M494.149 468.62H492.324L480.102 437.501H481.931L494.149 468.62Z" fill="#F3CBC2"/>
<path d="M469.801 452.065C470.286 453.497 469.929 454.911 469.005 455.226C468.081 455.542 466.938 454.636 466.453 453.204C465.968 451.773 466.325 450.364 467.249 450.048C468.173 449.733 469.316 450.638 469.801 452.065Z" fill="#E2F2F1"/>
<path d="M505.731 466.096H492.645V468.612H505.731C506.065 468.612 506.385 468.479 506.621 468.243C506.857 468.007 506.989 467.687 506.989 467.354C506.989 467.02 506.857 466.7 506.621 466.464C506.385 466.228 506.065 466.096 505.731 466.096Z" fill="#F3CBC2"/>
<path d="M502.419 466.968H494.148V467.361H502.419V466.968Z" fill="#E23E3D"/>
<path d="M537.596 456.695C537.551 456.709 537.503 456.709 537.459 456.695C537.429 456.688 537.4 456.676 537.375 456.658C537.351 456.641 537.33 456.618 537.314 456.592C537.298 456.566 537.288 456.537 537.283 456.506C537.279 456.476 537.281 456.445 537.289 456.416C537.326 456.256 541.173 439.903 542.811 429.615C542.815 429.585 542.825 429.556 542.841 429.53C542.857 429.504 542.878 429.481 542.903 429.463C542.927 429.445 542.955 429.433 542.985 429.426C543.015 429.419 543.046 429.418 543.076 429.423C543.136 429.433 543.19 429.467 543.226 429.517C543.262 429.566 543.277 429.628 543.268 429.689C541.63 439.994 537.779 456.361 537.738 456.526C537.73 456.563 537.713 456.599 537.688 456.628C537.663 456.658 537.632 456.681 537.596 456.695V456.695Z" fill="#090028"/>
<path d="M513.795 456.427C513.744 456.443 513.69 456.443 513.639 456.427C513.581 456.407 513.533 456.365 513.505 456.311C513.477 456.256 513.471 456.193 513.488 456.134C513.548 455.951 519.252 437.837 520.446 431.589C520.457 431.528 520.491 431.474 520.542 431.439C520.593 431.404 520.655 431.39 520.716 431.401C520.777 431.413 520.83 431.449 520.865 431.5C520.9 431.551 520.914 431.614 520.903 431.675C519.705 437.96 513.992 456.093 513.932 456.276C513.922 456.31 513.905 456.341 513.881 456.367C513.857 456.393 513.828 456.414 513.795 456.427Z" fill="#090028"/>
<path d="M536.992 421.954L536.443 421.999C536.417 422.002 536.392 421.999 536.367 421.992C536.343 421.984 536.321 421.971 536.301 421.955C536.282 421.938 536.266 421.917 536.255 421.894C536.244 421.872 536.238 421.847 536.237 421.821C536.235 421.796 536.238 421.77 536.246 421.746C536.254 421.722 536.267 421.7 536.283 421.681C536.3 421.662 536.32 421.646 536.343 421.635C536.365 421.624 536.39 421.617 536.415 421.615C544.416 421.053 545.902 415.211 545.916 415.134C545.925 415.084 545.953 415.04 545.994 415.011C546.035 414.982 546.086 414.97 546.135 414.978C546.16 414.981 546.184 414.99 546.206 415.002C546.227 415.015 546.246 415.032 546.261 415.052C546.276 415.072 546.286 415.095 546.292 415.119C546.298 415.143 546.299 415.168 546.296 415.193C546.286 415.257 544.809 421.144 536.992 421.954Z" fill="#090028"/>
<path d="M512.162 452.104C512.11 452.124 512.053 452.125 512.001 452.107C511.949 452.088 511.905 452.052 511.878 452.003L510.318 449.332V449.241L515.579 426.164C516.02 424.02 516.96 422.011 518.323 420.299C520.459 417.518 524.672 413.982 532.613 412.926C532.674 412.918 532.736 412.935 532.785 412.972C532.834 413.01 532.866 413.066 532.874 413.127C532.878 413.157 532.877 413.188 532.869 413.217C532.862 413.247 532.849 413.274 532.83 413.299C532.812 413.323 532.789 413.343 532.763 413.359C532.736 413.374 532.707 413.384 532.677 413.388C524.901 414.421 520.784 417.861 518.707 420.56C517.384 422.221 516.462 424.165 516.013 426.241V426.241L510.776 449.236L512.244 451.752C512.26 451.779 512.27 451.808 512.274 451.839C512.278 451.869 512.276 451.9 512.267 451.93C512.259 451.96 512.245 451.988 512.227 452.012C512.208 452.036 512.184 452.057 512.157 452.072L512.162 452.104Z" fill="#090028"/>
<path d="M503.932 452.191C503.875 452.212 503.812 452.21 503.757 452.185C503.701 452.161 503.658 452.115 503.635 452.059C503.623 452.03 503.617 452 503.617 451.969C503.617 451.939 503.623 451.909 503.635 451.88C503.647 451.852 503.665 451.827 503.687 451.806C503.709 451.784 503.735 451.768 503.763 451.757L510.478 449.076C510.536 449.055 510.599 449.057 510.656 449.082C510.712 449.106 510.757 449.152 510.78 449.209C510.803 449.266 510.802 449.33 510.778 449.386C510.754 449.443 510.709 449.487 510.652 449.511L503.937 452.187L503.932 452.191Z" fill="#090028"/>
<path d="M501.399 456.587C501.399 456.587 498.97 462.318 500.745 473.813L509.628 469.047L506.988 460.461L501.399 456.587Z" fill="#2A1968"/>
<path d="M545.618 456.901C545.589 456.905 545.56 456.905 545.531 456.901C545.197 456.901 512.322 455.903 501.563 456.791C501.298 457.495 500.086 461.146 500.424 467.824C500.426 467.854 500.422 467.885 500.412 467.914C500.402 467.942 500.386 467.969 500.366 467.991C500.345 468.014 500.32 468.032 500.293 468.045C500.265 468.058 500.235 468.065 500.205 468.066C500.143 468.069 500.083 468.047 500.037 468.006C499.991 467.966 499.962 467.908 499.958 467.847C499.574 460.281 501.12 456.631 501.188 456.48L501.243 456.352H501.38C512.011 455.437 545.211 456.439 545.545 456.448C545.575 456.449 545.605 456.456 545.633 456.469C545.661 456.482 545.686 456.5 545.707 456.523C545.728 456.545 545.744 456.571 545.755 456.6C545.765 456.629 545.77 456.66 545.769 456.69C545.768 456.736 545.753 456.781 545.726 456.819C545.699 456.856 545.661 456.885 545.618 456.901V456.901Z" fill="#090028"/>
<path d="M530.587 395.74L530.326 405.853C530.326 405.853 530.107 409.101 532.938 409.581L532.298 413.904C532.177 414.684 532.333 415.482 532.739 416.159C533.145 416.836 533.775 417.349 534.521 417.609C535.382 417.909 536.285 418.073 537.197 418.094C540.449 418.181 542.274 415.807 542.576 414.576C542.878 413.346 542.215 407.518 542.215 407.518L542.388 404.655L542.306 393.558L530.587 395.74Z" fill="white"/>
<path d="M539.607 406.987C539.607 406.987 539.273 412.426 532.467 412.769L532.924 409.567C532.924 409.567 537.325 410.578 539.607 406.987Z" fill="#E8EBF8"/>
<path d="M538.299 401.249C538.317 401.249 538.334 401.247 538.351 401.24C538.367 401.234 538.382 401.224 538.395 401.212C538.42 401.186 538.434 401.152 538.434 401.116C538.434 401.08 538.42 401.045 538.395 401.02C538.395 401.02 536.565 399.048 534.822 400.375C534.797 400.401 534.783 400.435 534.783 400.471C534.783 400.507 534.797 400.541 534.822 400.567C534.847 400.592 534.881 400.606 534.916 400.606C534.951 400.606 534.985 400.592 535.01 400.567C536.552 399.391 538.148 401.107 538.212 401.18C538.22 401.198 538.232 401.213 538.247 401.225C538.262 401.237 538.28 401.245 538.299 401.249V401.249Z" fill="#090028"/>
<path d="M543.006 399.947L540.065 400.478L539.525 401.013C539.525 401.013 539.905 396.119 540.481 395.167C541.058 394.216 543.006 399.947 543.006 399.947Z" fill="#090028"/>
<path d="M532.738 400.291C532.758 400.291 532.777 400.288 532.795 400.28C532.813 400.272 532.83 400.26 532.843 400.245C532.868 400.22 532.882 400.185 532.882 400.149C532.882 400.113 532.868 400.079 532.843 400.053C532.788 400.007 531.526 398.868 530.689 399.545C530.672 399.556 530.659 399.57 530.648 399.586C530.638 399.602 530.631 399.621 530.628 399.64C530.626 399.659 530.627 399.678 530.632 399.697C530.637 399.715 530.646 399.732 530.658 399.747C530.671 399.762 530.686 399.774 530.703 399.783C530.72 399.791 530.739 399.796 530.758 399.797C530.778 399.798 530.797 399.794 530.815 399.787C530.833 399.78 530.849 399.77 530.862 399.756C531.516 399.225 532.646 400.245 532.66 400.254C532.682 400.274 532.709 400.287 532.738 400.291V400.291Z" fill="#090028"/>
<path d="M538.909 401.668C538.897 402.15 539.027 402.625 539.284 403.032C539.542 403.44 539.914 403.762 540.355 403.959C540.795 404.155 541.284 404.216 541.759 404.134C542.234 404.052 542.675 403.832 543.024 403.5C543.374 403.168 543.618 402.74 543.724 402.27C543.831 401.799 543.795 401.308 543.623 400.858C543.45 400.408 543.148 400.019 542.754 399.741C542.36 399.462 541.893 399.307 541.411 399.294C541.091 399.285 540.772 399.339 540.472 399.454C540.173 399.568 539.899 399.741 539.667 399.961C539.434 400.182 539.248 400.446 539.118 400.739C538.988 401.032 538.917 401.348 538.909 401.668V401.668Z" fill="white"/>
<path d="M541.735 403.099C541.955 403.097 542.169 403.025 542.346 402.892C542.522 402.76 542.651 402.574 542.713 402.362C542.788 402.162 542.794 401.942 542.729 401.738C542.665 401.534 542.533 401.358 542.357 401.237C542.167 401.11 541.944 401.042 541.716 401.042C541.488 401.042 541.265 401.11 541.076 401.237C541.167 400.986 541.348 400.777 541.584 400.652C541.928 400.505 542.314 400.49 542.668 400.61C542.685 400.616 542.703 400.615 542.72 400.608C542.736 400.6 542.748 400.586 542.755 400.569C542.758 400.561 542.76 400.552 542.76 400.543C542.76 400.534 542.758 400.525 542.754 400.517C542.75 400.508 542.744 400.501 542.737 400.495C542.73 400.489 542.722 400.485 542.713 400.482C542.323 400.35 541.898 400.366 541.52 400.528C541.357 400.621 541.216 400.747 541.105 400.897C540.994 401.047 540.915 401.219 540.875 401.402L540.811 401.635L540.989 401.47C541.16 401.308 541.38 401.208 541.614 401.185C541.849 401.162 542.084 401.217 542.283 401.342C542.433 401.448 542.543 401.599 542.598 401.774C542.652 401.948 542.648 402.136 542.585 402.307C542.534 402.493 542.424 402.656 542.271 402.773C542.118 402.889 541.931 402.952 541.739 402.952V402.952C541.724 402.956 541.712 402.965 541.702 402.977C541.693 402.989 541.688 403.004 541.688 403.019C541.688 403.034 541.693 403.049 541.702 403.061C541.712 403.073 541.724 403.081 541.739 403.085L541.735 403.099Z" fill="#AE253D"/>
<path d="M534.064 404.426C534.078 404.427 534.093 404.423 534.105 404.416C534.117 404.409 534.127 404.398 534.133 404.384C534.138 404.367 534.136 404.349 534.128 404.333C534.121 404.317 534.108 404.305 534.092 404.297L532.719 403.813L533.232 400.611C533.228 400.596 533.219 400.583 533.207 400.574C533.195 400.565 533.18 400.56 533.165 400.56C533.15 400.56 533.135 400.565 533.123 400.574C533.112 400.583 533.103 400.596 533.099 400.611L532.568 403.904L534.023 404.426H534.064Z" fill="#AE253D"/>
<path d="M535.061 405.775C535.02 405.775 532.381 405.633 532.381 405.633C532.381 405.633 532.683 406.735 533.662 406.786C534.641 406.836 535.061 405.775 535.061 405.775Z" fill="#FBFDFC"/>
<path d="M543.006 399.948C543.006 399.948 543.953 395.218 542.549 393.412C541.145 391.605 532.879 388.293 531.845 389.148C530.811 390.004 531.795 391.111 531.795 391.111C531.795 391.111 528.469 389.949 527.637 392.899C526.804 395.85 533.972 397.3 538.309 396.023C540.261 396.784 541.91 398.163 543.006 399.948V399.948Z" fill="#090028"/>
<path d="M543.953 477.271C543.452 477.461 542.94 477.625 542.421 477.76C540.827 478.222 539.158 478.368 537.508 478.19C537.478 478.185 537.448 478.174 537.422 478.158C537.396 478.142 537.374 478.12 537.356 478.095C537.338 478.07 537.325 478.042 537.318 478.012C537.311 477.982 537.311 477.951 537.316 477.92C537.327 477.86 537.361 477.807 537.41 477.771C537.46 477.735 537.521 477.72 537.581 477.728C539.176 477.892 540.788 477.749 542.329 477.307C544.868 476.63 548.614 474.897 552.04 470.501C556.345 464.98 557.918 447.991 557.955 435.119C557.948 435.085 557.949 435.05 557.957 435.017C557.966 434.983 557.981 434.952 558.003 434.925C558.025 434.899 558.052 434.877 558.084 434.862C558.115 434.848 558.149 434.84 558.184 434.84C558.218 434.84 558.252 434.848 558.283 434.862C558.315 434.877 558.342 434.899 558.364 434.925C558.386 434.952 558.402 434.983 558.41 435.017C558.418 435.05 558.419 435.085 558.412 435.119C558.371 448.064 556.775 465.176 552.402 470.798C549.529 474.476 546.414 476.338 543.953 477.271Z" fill="#090028"/>
<path d="M476.8 550.922L462.405 553.607L455.388 548.333L445.892 556.663L443.605 557.093C443.217 557.158 442.863 557.355 442.604 557.651C442.345 557.947 442.195 558.323 442.182 558.717C442.178 558.964 442.229 559.208 442.331 559.433C442.433 559.658 442.584 559.858 442.772 560.017C442.961 560.176 443.183 560.292 443.422 560.355C443.661 560.418 443.911 560.427 444.153 560.382L477.632 554.142C477.749 554.119 477.852 554.051 477.92 553.953C477.987 553.854 478.014 553.734 477.994 553.616L477.587 551.434C477.569 551.349 477.535 551.267 477.486 551.195C477.437 551.123 477.374 551.061 477.3 551.013C477.227 550.966 477.145 550.933 477.059 550.917C476.973 550.902 476.885 550.903 476.8 550.922V550.922Z" fill="#A22641"/>
<path d="M476.675 550.964L475.572 545.054C475.572 545.054 472.54 542.241 469.168 544.597C469.168 544.597 464.324 549.601 458.506 545.722L447.294 553.425C447.294 553.425 444.152 555.168 443.58 557.135L476.675 550.964Z" fill="#100E68"/>
<path d="M502.204 550.952L487.658 552.658L481.002 546.927L470.971 554.616L468.647 554.886C468.255 554.926 467.889 555.1 467.61 555.378C467.331 555.656 467.156 556.022 467.115 556.414C467.095 556.66 467.13 556.907 467.217 557.138C467.304 557.369 467.442 557.578 467.619 557.75C467.797 557.921 468.01 558.051 468.244 558.13C468.478 558.209 468.727 558.235 468.972 558.207L502.794 554.236C502.913 554.221 503.021 554.16 503.096 554.066C503.17 553.972 503.205 553.853 503.192 553.733L502.931 551.528C502.921 551.443 502.895 551.36 502.853 551.284C502.811 551.209 502.755 551.143 502.687 551.089C502.62 551.035 502.542 550.996 502.459 550.972C502.376 550.949 502.29 550.942 502.204 550.952V550.952Z" fill="#D95F76"/>
<path d="M502.076 550.984L501.376 545.01C501.376 545.01 498.54 542.001 495.009 544.123C495.009 544.123 489.835 548.789 484.296 544.53L472.586 551.456C472.586 551.456 469.333 552.983 468.629 554.909L502.076 550.984Z" fill="#1F1587"/>
</g>
<path d="M103.636 527.523L107.007 528.978L110.754 530.757C110.754 530.757 116.577 531.768 116.659 531.745L116.174 532.615C123.397 533.507 146.158 534.444 149.895 534.856C152.146 535.108 154.314 537.907 155.677 540.093L153.848 541.347C153.848 541.347 133.968 540.469 134.009 540.889C134.009 541.022 134.581 542.998 135.455 545.578C123.177 546.397 105.983 546.319 102.79 541.26C100.155 537.129 102.708 531.155 103.636 527.523Z" fill="white"/>
<path d="M180.854 616.748L165.75 616.954L165.535 602.833L180.58 600.972L180.854 616.748Z" fill="white"/>
<path d="M133.881 566.403C133.881 566.403 120.881 566.618 111.764 566.307C108.841 566.206 106.238 566.412 104.697 566.069C98.3524 564.66 96.7881 544.863 103.992 532.732C111.197 520.601 136.396 557.845 136.396 557.845L133.881 566.403Z" fill="#0B1249"/>
<path d="M157.411 616.748L142.307 616.954L142.092 602.833L157.136 600.972L157.411 616.748Z" fill="white"/>
<path d="M147.883 539.899C147.883 539.899 179.82 541.94 180.744 545.626C181.668 549.313 184.308 588.528 182.331 605.256C182.331 605.256 170.214 606.089 164.419 604.684L163.005 563.896L153.441 562.798L131.525 536.455L147.883 539.899Z" fill="#2836A5"/>
<path d="M132.536 539.297C132.536 539.297 157.168 546.245 158.088 549.937C159.007 553.628 161.637 588.616 159.661 605.344C159.661 605.344 146.629 606.09 140.834 604.686L139.274 566.207L133.652 566.404L120.025 542.426L132.536 539.297Z" fill="#0B1249"/>
<path d="M166.142 564.766C163.224 563.824 159.203 563.682 159.162 563.677V563.22C159.203 563.22 163.279 563.366 166.266 564.331L166.142 564.766Z" fill="#090028"/>
<path d="M172.717 605.715C169.912 605.74 167.112 605.467 164.365 604.901L164.2 604.864L162.777 563.618L164.607 565.086L164.328 565.43L163.262 564.574L164.634 604.507C167.437 605.06 170.291 605.316 173.147 605.271V605.729L172.717 605.715Z" fill="#090028"/>
<path d="M166.522 598.313C165.909 594.731 166.49 570.497 166.522 569.468H166.979C166.979 569.719 166.371 594.69 166.979 598.226L166.522 598.313Z" fill="#090028"/>
<path d="M131.896 526.877C132.354 526.877 150.029 534.479 150.029 534.479L146.465 541.3L136.535 539.122L131.896 526.877Z" fill="#C43F5C"/>
<path d="M106.257 495.17C106.257 495.17 98.7325 494.904 95.1417 496.94C89.7807 499.977 91.6928 517.364 91.6928 517.364C91.6928 517.364 96.2441 514.88 96.5231 514.052C96.8022 513.224 106.257 495.17 106.257 495.17Z" fill="#C43F5C"/>
<path d="M104.427 532.916H104.455L109.989 534.178C110.016 534.185 110.043 534.186 110.07 534.182C110.097 534.178 110.123 534.168 110.146 534.153C110.169 534.139 110.189 534.12 110.205 534.097C110.22 534.075 110.231 534.049 110.236 534.023C110.242 533.996 110.243 533.969 110.239 533.942C110.234 533.915 110.224 533.89 110.21 533.867C110.196 533.844 110.177 533.824 110.155 533.808C110.132 533.793 110.107 533.782 110.081 533.776L104.546 532.509C104.497 532.502 104.446 532.514 104.404 532.541C104.363 532.568 104.332 532.609 104.317 532.657C104.303 532.705 104.306 532.756 104.326 532.802C104.346 532.848 104.382 532.885 104.427 532.907V532.916Z" fill="#090028"/>
<path d="M101.545 529.621L104.912 531.08L108.663 532.855C108.663 532.855 114.481 533.866 114.564 533.848L114.083 534.712C121.302 535.627 144.063 536.542 147.8 536.958C150.055 537.21 152.219 540.009 153.582 542.196L151.752 543.444C151.752 543.444 131.873 542.571 131.914 542.987C131.914 543.12 132.49 545.091 133.359 547.676C121.082 548.494 103.887 548.417 100.699 543.358C98.0599 539.209 100.612 533.248 101.545 529.621Z" fill="#F9B59D"/>
<path d="M98.9789 496.523C103.256 495.932 114.531 495.525 114.531 495.525C114.531 495.525 116.027 495.914 115.551 495.695C128.012 497.895 129.388 507.13 129.388 507.13L135.468 533.825L142.238 534.191C144.429 538.345 142.818 549.538 142.818 549.538L110.039 553.234C110.039 553.234 102.954 554.4 96.9572 546.716C92.9959 541.629 91.6465 526.022 91.6465 514.614C91.6511 514.618 92.3326 497.447 98.9789 496.523Z" fill="#C43F5C"/>
<path d="M190.798 517.199H159.588L148.701 544.919H179.911L190.798 517.199Z" fill="#090028"/>
<path d="M148.701 544.919H150.33L161.216 517.199H159.588L148.701 544.919Z" fill="#030014"/>
<path d="M170.393 530.176C169.963 531.447 170.279 532.705 171.102 532.989C171.926 533.272 172.932 532.463 173.389 531.186C173.847 529.91 173.508 528.657 172.685 528.373C171.862 528.09 170.828 528.895 170.393 530.176Z" fill="#E2F2F1"/>
<path d="M138.382 542.678H150.041V544.919H138.382C138.085 544.918 137.801 544.799 137.592 544.589C137.383 544.379 137.266 544.095 137.266 543.798V543.798C137.266 543.502 137.383 543.218 137.592 543.008C137.801 542.798 138.085 542.679 138.382 542.678V542.678Z" fill="#030014"/>
<path d="M141.337 543.804H148.701V543.452H141.337V543.804Z" fill="#090028"/>
<path d="M109.999 534.293C110.038 534.305 110.079 534.305 110.118 534.293C110.144 534.287 110.169 534.276 110.191 534.26C110.214 534.245 110.232 534.225 110.247 534.202C110.261 534.179 110.271 534.153 110.276 534.127C110.28 534.1 110.279 534.073 110.273 534.046C110.237 533.9 106.811 519.335 105.356 510.169C105.346 510.115 105.315 510.068 105.271 510.036C105.227 510.005 105.172 509.991 105.118 509.999C105.091 510.003 105.065 510.013 105.041 510.027C105.018 510.041 104.997 510.06 104.981 510.082C104.965 510.104 104.953 510.129 104.947 510.156C104.941 510.182 104.94 510.21 104.944 510.237C106.408 519.413 109.834 533.991 109.871 534.138C109.876 534.173 109.89 534.206 109.913 534.234C109.935 534.261 109.965 534.282 109.999 534.293V534.293Z" fill="#916D47"/>
<path d="M131.2 534.055C131.245 534.069 131.292 534.069 131.337 534.055C131.363 534.047 131.387 534.033 131.408 534.016C131.428 533.998 131.446 533.976 131.458 533.952C131.47 533.928 131.478 533.902 131.48 533.874C131.482 533.847 131.478 533.82 131.47 533.794C131.419 533.634 126.337 517.505 125.276 511.929C125.271 511.903 125.261 511.877 125.246 511.854C125.231 511.831 125.212 511.812 125.189 511.796C125.167 511.781 125.142 511.77 125.115 511.765C125.088 511.759 125.061 511.759 125.034 511.765C125.007 511.77 124.981 511.78 124.959 511.795C124.936 511.81 124.916 511.829 124.901 511.851C124.885 511.874 124.875 511.899 124.869 511.926C124.864 511.953 124.864 511.98 124.869 512.007C125.935 517.606 131.026 533.758 131.076 533.918C131.085 533.948 131.101 533.977 131.122 534.001C131.144 534.024 131.17 534.043 131.2 534.055V534.055Z" fill="#090028"/>
<path d="M110.539 503.348C110.699 503.348 110.859 503.38 111.029 503.389C111.073 503.392 111.117 503.377 111.151 503.348C111.185 503.319 111.207 503.278 111.211 503.234C111.214 503.188 111.199 503.143 111.169 503.108C111.139 503.073 111.097 503.051 111.051 503.046C103.92 502.548 102.598 497.329 102.589 497.278C102.585 497.256 102.577 497.234 102.565 497.215C102.552 497.195 102.537 497.179 102.518 497.166C102.499 497.152 102.478 497.143 102.456 497.138C102.433 497.133 102.41 497.132 102.388 497.136C102.344 497.143 102.304 497.167 102.277 497.203C102.251 497.239 102.239 497.284 102.246 497.329C102.255 497.383 103.573 502.63 110.539 503.348Z" fill="#090028"/>
<path d="M132.655 530.207C132.701 530.224 132.751 530.223 132.797 530.207C132.843 530.19 132.881 530.158 132.906 530.116L134.278 527.733V527.655L129.585 507.098C129.186 505.187 128.341 503.398 127.12 501.874C125.217 499.395 121.461 496.248 114.39 495.306C114.363 495.302 114.335 495.303 114.309 495.31C114.282 495.317 114.257 495.329 114.236 495.346C114.214 495.363 114.196 495.383 114.182 495.407C114.168 495.431 114.16 495.457 114.156 495.484C114.152 495.511 114.154 495.539 114.161 495.565C114.168 495.592 114.18 495.617 114.197 495.638C114.213 495.66 114.234 495.678 114.258 495.692C114.281 495.705 114.308 495.714 114.335 495.717C121.256 496.632 124.92 499.702 126.777 502.121C127.957 503.6 128.779 505.332 129.178 507.181V507.181L133.844 527.668L132.536 529.905C132.509 529.953 132.501 530.009 132.515 530.062C132.528 530.115 132.562 530.16 132.609 530.189L132.655 530.207Z" fill="#090028"/>
<path d="M139.988 530.268C140.039 530.287 140.096 530.285 140.145 530.263C140.195 530.241 140.234 530.2 140.253 530.149C140.273 530.098 140.272 530.042 140.251 529.993C140.229 529.943 140.189 529.904 140.139 529.883L134.16 527.523C134.109 527.503 134.053 527.504 134.002 527.525C133.952 527.547 133.912 527.587 133.891 527.637C133.88 527.663 133.875 527.69 133.875 527.717C133.875 527.744 133.881 527.771 133.891 527.796C133.902 527.821 133.917 527.844 133.937 527.863C133.956 527.882 133.98 527.897 134.005 527.907L139.988 530.295V530.268Z" fill="#090028"/>
<path d="M142.242 534.196C142.242 534.196 144.406 539.306 142.823 549.543L134.914 545.298L137.265 537.65L142.242 534.196Z" fill="#C43F5C"/>
<path d="M102.85 534.481C102.875 534.488 102.902 534.488 102.928 534.481C103.225 534.481 132.514 533.593 142.097 534.385C142.335 535.016 143.414 538.263 143.112 544.21C143.11 544.265 143.129 544.319 143.166 544.36C143.203 544.401 143.254 544.426 143.309 544.43C143.336 544.431 143.363 544.427 143.389 544.417C143.414 544.408 143.437 544.394 143.457 544.376C143.477 544.358 143.494 544.336 143.505 544.311C143.516 544.286 143.523 544.26 143.524 544.233C143.867 537.495 142.49 534.243 142.435 534.106L142.385 533.996H142.262C132.788 533.186 103.216 534.073 102.923 534.083C102.877 534.087 102.833 534.107 102.799 534.139C102.765 534.171 102.742 534.213 102.735 534.259C102.728 534.305 102.736 534.352 102.758 534.393C102.781 534.434 102.816 534.467 102.859 534.485L102.85 534.481Z" fill="#916D47"/>
<path d="M116.236 479.996L116.47 489.008C116.47 489.008 116.666 491.899 114.142 492.329L114.718 496.18C114.823 496.874 114.682 497.583 114.321 498.185C113.959 498.787 113.399 499.244 112.737 499.478C111.972 499.754 111.167 499.908 110.354 499.935C107.459 500.009 105.835 497.877 105.565 496.798C105.295 495.718 105.885 490.513 105.885 490.513L105.729 487.965L105.803 478.075L116.236 479.996Z" fill="white"/>
<path d="M108.205 490.014C108.205 490.014 108.502 494.858 114.568 495.164L114.142 492.324C114.142 492.324 110.236 493.216 108.205 490.014Z" fill="#D9D9D9"/>
<path d="M109.372 484.904C109.348 484.904 109.325 484.898 109.306 484.885C109.286 484.873 109.27 484.855 109.26 484.834C109.25 484.813 109.246 484.789 109.249 484.766C109.252 484.743 109.261 484.721 109.276 484.703C109.276 484.703 110.909 482.942 112.478 484.127C112.498 484.15 112.51 484.18 112.51 484.211C112.51 484.242 112.498 484.272 112.478 484.296C112.455 484.317 112.424 484.329 112.393 484.329C112.362 484.329 112.331 484.317 112.308 484.296C110.936 483.248 109.509 484.753 109.449 484.84C109.443 484.856 109.432 484.87 109.418 484.882C109.405 484.893 109.389 484.9 109.372 484.904Z" fill="#090028"/>
<path d="M105.178 483.748L107.799 484.205L108.279 484.663C108.279 484.663 107.941 480.304 107.428 479.457C106.916 478.611 105.178 483.748 105.178 483.748Z" fill="#090028"/>
<path d="M114.325 484.068C114.308 484.068 114.291 484.065 114.275 484.059C114.259 484.053 114.245 484.043 114.233 484.031C114.211 484.007 114.199 483.976 114.199 483.944C114.199 483.912 114.211 483.881 114.233 483.857C114.283 483.816 115.409 482.8 116.154 483.4C116.177 483.423 116.19 483.454 116.19 483.487C116.19 483.519 116.177 483.55 116.154 483.574C116.143 483.585 116.13 483.594 116.116 483.6C116.101 483.606 116.085 483.609 116.07 483.609C116.054 483.609 116.038 483.606 116.024 483.6C116.009 483.594 115.996 483.585 115.985 483.574C115.404 483.116 114.393 484.008 114.384 484.031C114.369 484.05 114.348 484.062 114.325 484.068Z" fill="#090028"/>
<path d="M111.824 485.33C111.825 485.425 111.789 485.518 111.723 485.587C111.657 485.656 111.567 485.697 111.471 485.7C111.399 485.703 111.327 485.684 111.265 485.646C111.203 485.607 111.154 485.552 111.124 485.485C111.094 485.419 111.085 485.345 111.097 485.274C111.109 485.202 111.142 485.135 111.193 485.083C111.243 485.03 111.307 484.993 111.378 484.977C111.449 484.962 111.524 484.967 111.591 484.994C111.659 485.021 111.717 485.067 111.759 485.126C111.8 485.186 111.823 485.257 111.824 485.33V485.33Z" fill="#1A2578"/>
<path d="M115.662 484.867C115.664 484.938 115.644 485.009 115.606 485.069C115.568 485.13 115.513 485.177 115.447 485.206C115.382 485.235 115.31 485.244 115.239 485.232C115.169 485.22 115.104 485.187 115.052 485.138C115 485.089 114.964 485.025 114.948 484.955C114.933 484.886 114.938 484.813 114.964 484.746C114.989 484.68 115.034 484.622 115.092 484.581C115.151 484.54 115.22 484.517 115.292 484.515C115.339 484.514 115.386 484.522 115.431 484.539C115.475 484.556 115.515 484.581 115.55 484.614C115.584 484.647 115.612 484.686 115.631 484.729C115.65 484.773 115.661 484.82 115.662 484.867V484.867Z" fill="#1A2578"/>
<path d="M108.827 485.279C108.839 485.709 108.723 486.132 108.493 486.496C108.264 486.86 107.933 487.147 107.54 487.322C107.147 487.497 106.712 487.552 106.288 487.479C105.864 487.407 105.472 487.21 105.16 486.914C104.848 486.618 104.631 486.237 104.536 485.817C104.441 485.398 104.473 484.96 104.627 484.559C104.781 484.157 105.051 483.811 105.402 483.563C105.753 483.315 106.17 483.177 106.599 483.166C107.175 483.151 107.733 483.365 108.151 483.761C108.568 484.158 108.812 484.704 108.827 485.279V485.279Z" fill="white"/>
<path d="M106.307 486.552C106.111 486.55 105.921 486.486 105.764 486.368C105.608 486.25 105.493 486.086 105.437 485.898C105.37 485.719 105.365 485.523 105.423 485.341C105.481 485.159 105.599 485.003 105.758 484.896C105.926 484.782 106.124 484.721 106.327 484.721C106.53 484.721 106.729 484.782 106.897 484.896C106.814 484.672 106.651 484.486 106.439 484.375C106.133 484.244 105.79 484.23 105.474 484.333C105.467 484.338 105.458 484.34 105.45 484.341C105.441 484.342 105.432 484.341 105.424 484.338C105.416 484.335 105.409 484.331 105.402 484.324C105.396 484.318 105.391 484.311 105.388 484.303C105.385 484.295 105.384 484.286 105.385 484.278C105.385 484.269 105.388 484.261 105.392 484.253C105.396 484.245 105.402 484.239 105.409 484.234C105.416 484.229 105.424 484.225 105.433 484.224C105.779 484.104 106.158 484.119 106.494 484.265C106.64 484.346 106.766 484.458 106.866 484.592C106.965 484.726 107.035 484.88 107.07 485.042L107.125 485.253L106.97 485.102C106.817 484.958 106.622 484.869 106.413 484.848C106.204 484.827 105.995 484.876 105.817 484.988C105.683 485.082 105.583 485.217 105.535 485.374C105.486 485.53 105.49 485.698 105.547 485.852C105.594 486.016 105.693 486.161 105.829 486.264C105.965 486.367 106.131 486.423 106.302 486.424V486.424C106.31 486.423 106.318 486.424 106.325 486.427C106.333 486.429 106.339 486.433 106.345 486.438C106.351 486.443 106.356 486.449 106.36 486.456C106.363 486.463 106.365 486.471 106.366 486.479C106.367 486.487 106.366 486.495 106.363 486.503C106.36 486.511 106.356 486.518 106.35 486.524C106.345 486.53 106.338 486.535 106.33 486.538C106.323 486.541 106.315 486.543 106.307 486.543V486.552Z" fill="#AE253D"/>
<path d="M113.164 487.726C113.151 487.727 113.138 487.723 113.127 487.716C113.116 487.708 113.108 487.698 113.104 487.685C113.1 487.671 113.101 487.655 113.108 487.641C113.115 487.628 113.126 487.617 113.141 487.612L114.339 487.155L113.882 484.319C113.88 484.311 113.881 484.303 113.883 484.295C113.884 484.287 113.888 484.28 113.892 484.274C113.897 484.267 113.903 484.262 113.91 484.258C113.917 484.254 113.924 484.251 113.932 484.25C113.948 484.247 113.965 484.251 113.979 484.26C113.992 484.27 114.002 484.284 114.005 484.3L114.463 487.237L113.168 487.694L113.164 487.726Z" fill="#AE253D"/>
<path d="M112.258 488.935L114.646 488.812C114.646 488.812 114.376 489.795 113.502 489.841C112.628 489.886 112.258 488.935 112.258 488.935Z" fill="#A9A9A9"/>
<path d="M105.177 483.747C105.177 483.747 104.335 479.534 105.589 477.924C106.842 476.314 114.202 473.35 115.126 474.128C116.05 474.905 115.172 475.875 115.172 475.875C115.172 475.875 118.131 474.837 118.872 477.467C119.613 480.097 113.228 481.387 109.367 480.248C107.626 480.926 106.154 482.155 105.177 483.747V483.747Z" fill="#090028"/>
<path d="M196.076 620.546H165.635V614.339C165.635 614.339 167.849 611.356 171.22 612.879C171.22 612.879 176.32 616.498 180.826 612.12L191.987 617.069C191.987 617.069 196.076 618.437 196.076 620.546Z" fill="#C43F5C"/>
<path d="M196.186 622.723H165.411C165.281 622.723 165.156 622.671 165.065 622.579C164.973 622.487 164.921 622.363 164.921 622.233V620.239C164.921 620.109 164.973 619.985 165.065 619.893C165.156 619.801 165.281 619.749 165.411 619.749H196.186C196.345 619.749 196.503 619.781 196.65 619.842C196.797 619.903 196.931 619.992 197.043 620.104C197.156 620.217 197.245 620.351 197.306 620.498C197.367 620.645 197.398 620.802 197.398 620.962V621.533C197.392 621.851 197.262 622.153 197.035 622.376C196.809 622.598 196.504 622.723 196.186 622.723V622.723Z" fill="#0B1249"/>
<path d="M172.326 620.546H141.885V614.339C141.885 614.339 144.099 611.356 147.47 612.879C147.47 612.879 152.57 616.498 157.076 612.12L168.242 617.069C168.242 617.069 172.326 618.437 172.326 620.546Z" fill="#C43F5C"/>
<path d="M172.428 622.723H141.653C141.523 622.723 141.399 622.671 141.307 622.579C141.215 622.487 141.164 622.363 141.164 622.233V620.239C141.164 620.109 141.215 619.985 141.307 619.893C141.399 619.801 141.523 619.749 141.653 619.749H172.428C172.75 619.749 173.058 619.877 173.286 620.104C173.513 620.332 173.641 620.64 173.641 620.962V621.533C173.635 621.851 173.504 622.153 173.278 622.376C173.051 622.598 172.746 622.723 172.428 622.723V622.723Z" fill="#1A2578"/>
<path opacity="0.2" d="M510.002 121.213C518.087 121.213 524.642 114.45 524.642 106.107C524.642 97.7634 518.087 91 510.002 91C501.916 91 495.361 97.7634 495.361 106.107C495.361 114.45 501.916 121.213 510.002 121.213Z" stroke="#BF0830" stroke-width="10"/>
<path opacity="0.3" d="M113.861 228.478C118.003 228.478 121.361 225.013 121.361 220.739C121.361 216.465 118.003 213 113.861 213C109.719 213 106.361 216.465 106.361 220.739C106.361 225.013 109.719 228.478 113.861 228.478Z" stroke="#6258C4" stroke-width="5"/>
<path opacity="0.3" d="M578.861 327.478C583.003 327.478 586.361 324.013 586.361 319.739C586.361 315.465 583.003 312 578.861 312C574.719 312 571.361 315.465 571.361 319.739C571.361 324.013 574.719 327.478 578.861 327.478Z" stroke="#74BBFB" stroke-width="5"/>
<g opacity="0.84" filter="url(#filter1_b_18816_8534)">
<path d="M215.329 529.213C214.848 530.299 213.772 531 212.585 531H177.968C175.8 531 174.348 528.77 175.225 526.787L185.396 503.787C185.876 502.701 186.952 502 188.14 502H222.755C224.923 502 226.375 504.23 225.498 506.213L215.329 529.213Z" fill="white" fill-opacity="0.46"/>
</g>
<g opacity="0.84" filter="url(#filter2_b_18816_8534)">
<path d="M216.329 530.213C215.848 531.299 214.772 532 213.585 532H178.968C176.8 532 175.348 529.77 176.225 527.787L186.396 504.787C186.876 503.701 187.952 503 189.14 503H223.755C225.923 503 227.375 505.23 226.498 507.213L216.329 530.213Z" fill="white" fill-opacity="0.27"/>
</g>
<path d="M198.031 511.313L191.82 511.231L194.58 520.069L200.789 520.151L198.031 511.313Z" fill="#0056A7"/>
<path d="M194.541 519.814L194.636 520.063L200.845 520.143L198.815 513.936L194.541 519.814Z" fill="#2E3191"/>
<path d="M211.193 504.061L194.639 520.063L200.848 520.145L217.404 504.142L211.193 504.061Z" fill="#0056A7"/>
<path d="M193.834 522.475L199.867 522.553L198.179 527.625L192.146 527.545L193.834 522.475Z" fill="#0056A7"/>
<g filter="url(#filter3_bd_18816_8534)">
<path d="M356.298 458.416C358.051 462.416 362.005 465 366.372 465H471.286C474.172 465 476.108 462.037 474.949 459.394L441.639 383.394C441.001 381.94 439.564 381 437.975 381H328.482C325.596 381 323.66 383.963 324.819 386.606L356.298 458.416Z" fill="#E2738B" fill-opacity="0.61" shape-rendering="crispEdges"/>
</g>
<g filter="url(#filter4_b_18816_8534)">
<path d="M353.298 461.416C355.051 465.416 359.005 468 363.372 468H468.286C471.172 468 473.108 465.037 471.949 462.394L438.639 386.394C438.001 384.94 436.564 384 434.975 384H325.482C322.596 384 320.66 386.963 321.819 389.606L353.298 461.416Z" fill="#E2738B" fill-opacity="0.61"/>
</g>
<path d="M419.925 438.475C420.35 439.433 420.033 440.231 419.223 440.247L408.915 440.459C408.113 440.459 407.087 439.706 406.662 438.748L401.251 426.588C400.826 425.63 401.143 424.832 401.957 424.812L412.261 424.604C413.063 424.604 414.089 425.357 414.514 426.315L419.925 438.475Z" fill="#07BFDD"/>
<path d="M426.527 422.872C426.952 423.83 426.635 424.627 425.826 424.643L415.517 424.856C414.715 424.856 413.689 424.102 413.264 423.14L407.857 410.984C407.429 410.026 407.745 409.224 408.559 409.208L418.864 409C419.665 409 420.691 409.753 421.116 410.711L426.527 422.872Z" fill="#007FFF"/>
<path d="M393.444 439.016C393.873 439.974 393.557 440.776 392.743 440.792L382.438 441C381.637 441 380.611 440.247 380.186 439.289L374.775 427.129C374.35 426.171 374.667 425.373 375.476 425.357L385.785 425.145C386.587 425.145 387.609 425.898 388.037 426.856L393.444 439.016Z" fill="#1DA5F8"/>
<path d="M373.22 423.963C373.649 424.921 373.332 425.722 372.518 425.738L362.214 425.951C361.412 425.951 360.386 425.197 359.961 424.235L354.55 412.075C354.125 411.117 354.442 410.319 355.252 410.303L365.556 410.091C366.358 410.091 367.388 410.848 367.813 411.806L373.22 423.963Z" fill="#8CC936"/>
<path d="M346.361 49.3261C318.427 37.2304 310.861 13.5688 310.861 0C308.779 30.5 288.861 44.5 276.361 50.5C303.361 57.1739 308.727 85.7681 311.443 100.5C314.361 67.5 334.361 50.5 346.361 49.3261Z" fill="#F1C21C"/>
<defs>
<filter id="filter0_d_18816_8534" x="431.182" y="384.01" width="134.327" height="189.4" filterUnits="userSpaceOnUse" color-interpolation-filters="sRGB">
<feFlood flood-opacity="0" result="BackgroundImageFix"/>
<feColorMatrix in="SourceAlpha" type="matrix" values="0 0 0 0 0 0 0 0 0 0 0 0 0 0 0 0 0 0 127 0" result="hardAlpha"/>
<feOffset dx="-2" dy="4"/>
<feGaussianBlur stdDeviation="4.5"/>
<feComposite in2="hardAlpha" operator="out"/>
<feColorMatrix type="matrix" values="0 0 0 0 0 0 0 0 0 0 0 0 0 0 0 0 0 0 0.25 0"/>
<feBlend mode="normal" in2="BackgroundImageFix" result="effect1_dropShadow_18816_8534"/>
<feBlend mode="normal" in="SourceGraphic" in2="effect1_dropShadow_18816_8534" result="shape"/>
</filter>
<filter id="filter1_b_18816_8534" x="170.965" y="498" width="58.793" height="37" filterUnits="userSpaceOnUse" color-interpolation-filters="sRGB">
<feFlood flood-opacity="0" result="BackgroundImageFix"/>
<feGaussianBlur in="BackgroundImageFix" stdDeviation="2"/>
<feComposite in2="SourceAlpha" operator="in" result="effect1_backgroundBlur_18816_8534"/>
<feBlend mode="normal" in="SourceGraphic" in2="effect1_backgroundBlur_18816_8534" result="shape"/>
</filter>
<filter id="filter2_b_18816_8534" x="171.965" y="499" width="58.793" height="37" filterUnits="userSpaceOnUse" color-interpolation-filters="sRGB">
<feFlood flood-opacity="0" result="BackgroundImageFix"/>
<feGaussianBlur in="BackgroundImageFix" stdDeviation="2"/>
<feComposite in2="SourceAlpha" operator="in" result="effect1_backgroundBlur_18816_8534"/>
<feBlend mode="normal" in="SourceGraphic" in2="effect1_backgroundBlur_18816_8534" result="shape"/>
</filter>
<filter id="filter3_bd_18816_8534" x="320.478" y="379" width="158.812" height="94" filterUnits="userSpaceOnUse" color-interpolation-filters="sRGB">
<feFlood flood-opacity="0" result="BackgroundImageFix"/>
<feGaussianBlur in="BackgroundImageFix" stdDeviation="1"/>
<feComposite in2="SourceAlpha" operator="in" result="effect1_backgroundBlur_18816_8534"/>
<feColorMatrix in="SourceAlpha" type="matrix" values="0 0 0 0 0 0 0 0 0 0 0 0 0 0 0 0 0 0 127 0" result="hardAlpha"/>
<feOffset dy="4"/>
<feGaussianBlur stdDeviation="2"/>
<feComposite in2="hardAlpha" operator="out"/>
<feColorMatrix type="matrix" values="0 0 0 0 0 0 0 0 0 0 0 0 0 0 0 0 0 0 0.25 0"/>
<feBlend mode="normal" in2="effect1_backgroundBlur_18816_8534" result="effect2_dropShadow_18816_8534"/>
<feBlend mode="normal" in="SourceGraphic" in2="effect2_dropShadow_18816_8534" result="shape"/>
</filter>
<filter id="filter4_b_18816_8534" x="319.478" y="382" width="154.812" height="88" filterUnits="userSpaceOnUse" color-interpolation-filters="sRGB">
<feFlood flood-opacity="0" result="BackgroundImageFix"/>
<feGaussianBlur in="BackgroundImageFix" stdDeviation="1"/>
<feComposite in2="SourceAlpha" operator="in" result="effect1_backgroundBlur_18816_8534"/>
<feBlend mode="normal" in="SourceGraphic" in2="effect1_backgroundBlur_18816_8534" result="shape"/>
</filter>
</defs>
</svg>
