<svg width="116" height="29" viewBox="0 0 116 29" fill="none" xmlns="http://www.w3.org/2000/svg">
<path d="M115.886 0H0V28.5079H115.886V0Z" fill="#8F90A6"/>
<path fill-rule="evenodd" clip-rule="evenodd" d="M46.2961 6.7218L40.637 16.321C40.5211 16.5335 39.4009 18.1752 37.1218 18.3297C34.862 18.4263 32.9499 16.3597 32.9885 14.1385C33.0658 11.9367 34.7654 10.1597 37.0252 10.1211C38.9566 10.1597 40.3666 11.589 40.3473 11.6083C40.7529 11.956 41.0233 12.2071 41.3323 12.6513L43.3989 9.1554C43.032 8.78843 42.8775 8.6146 42.4139 8.28626C41.2357 7.2626 39.5168 6.4514 37.1025 6.37414C34.7848 6.33551 32.4284 7.2626 30.6322 9.52238C29.5119 10.9516 29.0677 12.2457 29.0098 14.1385C29.0291 16.3597 29.8596 18.1559 31.0764 19.4499C33.1623 21.5552 35.6732 22.0574 37.0059 22.0574C38.9373 21.9801 40.3473 21.5166 41.68 20.6667C42.1049 20.377 42.5491 20.0101 43.032 19.5272H46.6244V21.7097H50.3135V6.7218H46.2961ZM46.6631 16.3983H44.693L46.6631 12.999V16.3983Z" fill="white"/>
<path fill-rule="evenodd" clip-rule="evenodd" d="M53.9636 21.8068V10.2762H51.0664V6.78027H60.8008V10.2762H57.8071V21.8068H53.9636Z" fill="white"/>
<path fill-rule="evenodd" clip-rule="evenodd" d="M69.2409 16.0512H65.3008V21.8068H61.4766V6.78027H65.3008V12.478H69.2409V6.78027H73.1038V21.8068H69.2409V16.0512Z" fill="white"/>
<path fill-rule="evenodd" clip-rule="evenodd" d="M104.972 6.78017V15.124L99.2165 6.78017H95.7592V11.8598C95.3729 10.701 94.6776 9.63869 93.7119 8.73091C92.1861 7.30165 90.1967 6.50977 88.1107 6.50977C85.8896 6.50977 83.9388 7.24371 82.3937 8.7116C80.8486 10.1602 80.018 12.0723 80.018 14.1389C80.018 15.7806 80.443 17.2292 81.2542 18.4847H78.3184V6.78017H74.4941V21.8067H82.7993V20.2229C84.2479 21.4591 86.0441 22.0771 88.0914 22.0771C90.274 22.0771 92.3599 21.2466 93.8664 19.7401C94.7549 18.8709 95.3729 17.828 95.7592 16.6884V21.8067H99.6028V13.4436L105.455 21.8067H108.835V6.78017H104.972ZM88.0721 18.3494C85.9089 18.3494 83.9388 16.5339 83.9388 14.1582C83.9388 11.9564 85.7737 10.1988 88.1107 10.1988C90.3126 10.1988 92.1474 11.9564 92.1474 14.1582C92.1668 16.6305 90.3319 18.3494 88.0721 18.3494Z" fill="white"/>
<path fill-rule="evenodd" clip-rule="evenodd" d="M29.0288 10.0242V6.70215H20.4918V12.8827C20.2407 11.0865 19.4875 9.63792 18.3093 8.55632C16.6676 7.06912 14.9293 6.76009 12.4377 6.76009H7.06836V21.7866H12.9592C15.1611 21.7866 16.6483 21.4969 18.3286 19.9325C19.5068 18.8122 20.2407 17.4023 20.4918 15.7413V21.7094H29.0288V18.4839H24.2581V15.7026H28.3914V12.4771H24.2581V10.0435H29.0288V10.0242ZM12.4571 18.5032H10.9119V10.0049H12.4377C15.2576 10.0049 16.7835 11.5307 16.7835 14.2347C16.7835 17.1898 15.3928 18.5032 12.4571 18.5032Z" fill="white"/>
</svg>
