<svg width="141" height="30" viewBox="0 0 141 30" fill="none" xmlns="http://www.w3.org/2000/svg">
<path d="M140.237 18.1364C140.029 17.0808 139.08 16.3198 138.066 16.3959C136.933 16.4817 136.079 17.322 136.024 18.4263C135.981 18.9687 136.145 19.5074 136.484 19.9335C136.822 20.3596 137.309 20.6415 137.848 20.7222C138.86 20.8922 139.867 20.2365 140.189 19.2115C140.224 19.0982 140.189 18.9606 140.299 18.8699V18.3048C140.237 18.2644 140.249 18.1964 140.237 18.1364ZM138.149 20.4032C137.663 20.4032 137.198 20.2105 136.855 19.8674C136.512 19.5242 136.319 19.0589 136.319 18.5736C136.319 18.0884 136.512 17.623 136.855 17.2799C137.198 16.9367 137.663 16.744 138.149 16.744C138.634 16.744 139.099 16.9367 139.442 17.2799C139.786 17.623 139.978 18.0884 139.978 18.5736C139.978 19.0589 139.786 19.5242 139.442 19.8674C139.099 20.2105 138.634 20.4032 138.149 20.4032Z" fill="#8F90A6"/>
<path d="M45.5747 13.6517C43.9556 12.528 42.1308 12.0698 40.1911 12.0439C37.8174 12.0131 35.4405 12.0439 33.0669 12.0439C32.5083 12.0439 32.4062 12.1443 32.4062 12.6915V20.4634C32.4062 23.0638 32.4062 25.6641 32.4062 28.2645C32.4062 28.768 32.5342 28.8927 33.0345 28.8927C35.3369 28.8927 37.6388 28.8927 39.9401 28.8927C40.8296 28.8961 41.7163 28.7923 42.581 28.5834C45.238 27.9244 47.223 26.4462 48.2674 23.8588C48.8875 22.3238 49.0025 20.716 48.7887 19.0904C48.4908 16.8268 47.4724 14.9729 45.5747 13.6517ZM42.5858 23.3666C41.8394 24.1065 40.91 24.4044 39.8851 24.4352C39.1435 24.4579 38.4003 24.4352 37.6571 24.4352C37.4806 24.4352 37.4256 24.3866 37.4256 24.2069C37.4321 21.7005 37.4321 19.194 37.4256 16.6876C37.4256 16.5257 37.4726 16.4739 37.6377 16.4771C38.0668 16.4884 38.4958 16.4771 38.9249 16.4771C39.6568 16.4771 40.3902 16.4431 41.1075 16.639C42.6635 17.0454 43.6285 18.2387 43.7629 19.9307C43.8682 21.2455 43.5443 22.4145 42.5858 23.3649V23.3666Z" fill="#8F90A6"/>
<path d="M82.1346 16.5331C80.2839 16.0895 78.6389 16.5331 77.2383 17.8285C77.0295 18.0228 76.8497 18.2462 76.6473 18.4664C76.2215 17.38 75.4557 16.7096 74.332 16.4927C72.4165 16.1251 70.7391 16.6222 69.2916 17.9499C69.2786 17.9305 69.2689 17.924 69.2689 17.9159C69.2689 17.686 69.2689 17.456 69.2689 17.2261C69.2689 16.8213 69.1232 16.674 68.7249 16.6724C67.5958 16.6724 66.4662 16.6724 65.336 16.6724C64.9344 16.6724 64.7871 16.8133 64.7871 17.2213C64.7871 20.9291 64.7871 24.6364 64.7871 28.3432C64.7871 28.7463 64.9361 28.884 65.3441 28.884H68.6391C69.1458 28.884 69.2689 28.7625 69.2689 28.2606C69.2689 26.0478 69.2689 23.8349 69.2689 21.6221C69.2689 21.5007 69.2414 21.3776 69.3401 21.2675C69.6866 20.8757 70.0833 20.5486 70.6096 20.4579C71.6571 20.2669 72.4408 20.649 72.4246 21.9152C72.3987 24.046 72.4246 26.1768 72.4246 28.3076C72.4246 28.7722 72.5525 28.8969 73.0221 28.8969H76.2863C76.7801 28.8969 76.8934 28.7836 76.8934 28.2914V21.6529C76.8829 21.5812 76.8873 21.5081 76.9062 21.4382C76.9252 21.3683 76.9583 21.303 77.0036 21.2465C77.272 20.9379 77.61 20.6976 77.9896 20.5454C79.2169 20.0904 80.0832 20.6814 80.0945 21.9783V28.3691C80.0945 28.748 80.2289 28.8985 80.5802 28.9002C81.7417 28.9002 82.9032 28.9002 84.0646 28.9002C84.3885 28.9002 84.5504 28.7382 84.5504 28.4144C84.5504 25.5113 84.5666 22.6082 84.5504 19.705C84.5131 18.0729 83.621 16.891 82.1346 16.5331Z" fill="#8F90A6"/>
<path d="M25.4774 5.94772L19.9448 0.311476C19.8503 0.208397 19.7343 0.127287 19.6051 0.0738565C19.4759 0.0204259 19.3365 -0.00402724 19.1968 0.00221849C18.7742 -0.0285453 18.5151 0.26614 18.2431 0.544633L14.0333 4.84184C12.6441 6.26021 11.2533 7.6775 9.86079 9.09371C9.73288 9.22163 9.69887 9.29287 9.84945 9.43859C12.9269 12.5689 16 15.6993 19.0689 18.8296C19.2826 19.0482 19.3635 18.9235 19.4996 18.7843C22.3223 15.9022 25.145 13.0223 27.9677 10.1445C28.4955 9.60536 28.4923 9.01113 27.9563 8.47358C27.1273 7.63648 26.3048 6.78805 25.4774 5.94772ZM19.2146 11.686C18.5795 11.6804 17.9726 11.4227 17.5274 10.9697C17.0823 10.5166 16.8353 9.90532 16.8409 9.2702C16.8465 8.63509 17.1042 8.0282 17.5572 7.58305C18.0102 7.1379 18.6216 6.89095 19.2567 6.89653C19.5712 6.8993 19.882 6.96398 20.1715 7.08688C20.461 7.20978 20.7234 7.38849 20.9438 7.61281C21.1643 7.83714 21.3383 8.10268 21.4561 8.39428C21.5739 8.68588 21.6331 8.99783 21.6303 9.3123C21.6276 9.62678 21.5629 9.93763 21.44 10.2271C21.3171 10.5166 21.1384 10.779 20.9141 10.9994C20.6897 11.2199 20.4242 11.3939 20.1326 11.5117C19.841 11.6295 19.5291 11.6887 19.2146 11.686Z" fill="#8F90A6"/>
<path d="M18.5144 19.4171C18.3023 19.218 18.1063 18.9978 17.9023 18.7889C15.0526 15.8895 12.204 12.988 9.35649 10.0844C9.17352 9.89655 9.07961 9.86903 8.87074 10.0747C7.0573 11.9399 5.22929 13.7987 3.40613 15.651C2.38931 16.6872 1.36763 17.7203 0.357281 18.7646C-0.128462 19.2617 -0.112271 19.8446 0.365376 20.3449C0.582342 20.5716 0.809022 20.7869 1.02923 21.012C3.4914 23.5281 5.9552 26.0448 8.42062 28.562C8.51959 28.6641 8.63853 28.7447 8.77002 28.7987C8.90151 28.8528 9.04272 28.8791 9.18485 28.8762C9.33023 28.8685 9.47265 28.8321 9.60384 28.769C9.73503 28.7059 9.85238 28.6174 9.94909 28.5086C11.2822 27.1496 12.6158 25.7922 13.95 24.4365C15.4742 22.8853 16.9994 21.3358 18.5257 19.7879C18.6811 19.6308 18.6552 19.5515 18.5144 19.4171ZM5.69074 21.8944C5.21862 21.9014 4.75504 21.7682 4.35872 21.5115C3.96241 21.2548 3.65121 20.8863 3.46454 20.4526C3.27787 20.0188 3.22414 19.5395 3.31015 19.0752C3.39617 18.6109 3.61805 18.1826 3.9477 17.8446C4.27735 17.5065 4.69992 17.2739 5.16188 17.1763C5.62385 17.0786 6.10441 17.1202 6.54268 17.2959C6.98095 17.4716 7.35721 17.7734 7.62378 18.1632C7.89036 18.5529 8.03526 19.013 8.04012 19.4851C8.04991 19.7993 7.99631 20.1122 7.88251 20.4051C7.76871 20.6981 7.59705 20.9652 7.37778 21.1903C7.1585 21.4155 6.8961 21.5942 6.60625 21.7157C6.3164 21.8372 6.00504 21.8991 5.69074 21.8977V21.8944ZM12.5964 22.0078C11.9748 21.9942 11.3834 21.7369 10.9497 21.2914C10.516 20.8458 10.2747 20.2477 10.2778 19.626C10.287 19.1656 10.4322 18.7183 10.6951 18.3402C10.9579 17.9622 11.3267 17.6703 11.7549 17.5012C12.1832 17.3322 12.652 17.2936 13.1022 17.3902C13.5523 17.4868 13.9639 17.7144 14.2851 18.0444C14.6063 18.3743 14.8227 18.7918 14.9072 19.2445C14.9918 19.6971 14.9406 20.1646 14.7601 20.5882C14.5796 21.0118 14.2779 21.3726 13.8929 21.6252C13.5079 21.8777 13.0568 22.0109 12.5964 22.0078Z" fill="#8F90A6"/>
<path d="M106.314 19.7733C106.254 18.1055 105.207 16.8361 103.581 16.5123C101.591 16.1156 99.784 16.5123 98.2377 18.0197C98.2377 17.7153 98.2377 17.4692 98.2377 17.2231C98.2377 16.8038 98.113 16.6758 97.7018 16.6758C96.5813 16.6758 95.4614 16.6758 94.3421 16.6758C93.9178 16.6758 93.7705 16.8167 93.7705 17.2312C93.7705 20.9282 93.7705 24.6253 93.7705 28.3223C93.7705 28.7433 93.9146 28.8874 94.3323 28.8874H97.6597C98.1147 28.8874 98.2377 28.766 98.2377 28.3175C98.2377 26.177 98.2539 24.0365 98.2264 21.896C98.2099 21.6955 98.2485 21.4943 98.3381 21.3142C98.4278 21.1341 98.5649 20.982 98.7348 20.8743C98.827 20.8058 98.9227 20.742 99.0214 20.6832C100.479 19.8526 101.865 20.6379 101.865 22.3024V28.256C101.865 28.7822 101.976 28.8907 102.512 28.8907H105.778C106.206 28.8907 106.333 28.7627 106.333 28.3288C106.333 26.7421 106.333 25.1548 106.333 23.5669C106.332 22.3007 106.361 21.0362 106.314 19.7733Z" fill="#8F90A6"/>
<path d="M56.875 16.3212C53.3938 16.1593 50.3984 18.9216 50.2754 22.5306C50.1604 25.8936 52.6102 28.9198 56.1642 29.1967C59.6324 29.4654 62.6942 26.7437 62.9112 23.1799C63.133 19.5223 60.4031 16.4848 56.875 16.3212ZM58.7419 22.7395C58.6755 23.9911 57.6991 24.9075 56.4913 24.8444C56.059 24.831 55.6405 24.6896 55.2887 24.438C54.9369 24.1865 54.6677 23.8363 54.5152 23.4316C54.3627 23.0269 54.3337 22.5861 54.4319 22.165C54.5302 21.7438 54.7512 21.3614 55.0671 21.066C55.3829 20.7706 55.7793 20.5756 56.2061 20.5057C56.6329 20.4358 57.0708 20.4942 57.4643 20.6734C57.8579 20.8527 58.1894 21.1447 58.4168 21.5125C58.6442 21.8803 58.7574 22.3073 58.7419 22.7395Z" fill="#8F90A6"/>
<path d="M113.762 16.385C110.543 16.772 108.197 19.497 108.197 22.8324C108.188 23.3851 108.257 23.9363 108.403 24.4694C109.212 27.6672 112.496 29.7704 115.665 29.1195C116.551 28.9432 117.389 28.5825 118.127 28.0609C118.864 27.5393 119.484 26.8685 119.945 26.0919C120.407 25.3154 120.7 24.4505 120.805 23.5534C120.911 22.6562 120.826 21.747 120.558 20.8846C119.693 18.0219 116.971 15.9996 113.762 16.385ZM114.509 24.8855C113.937 24.8715 113.394 24.6351 112.994 24.2265C112.594 23.8179 112.37 23.2695 112.368 22.6979C112.367 22.1263 112.588 21.5767 112.986 21.166C113.384 20.7554 113.926 20.5162 114.497 20.4992C115.069 20.5132 115.612 20.7496 116.012 21.1582C116.412 21.5668 116.636 22.1152 116.638 22.6868C116.639 23.2584 116.417 23.808 116.02 24.2187C115.622 24.6293 115.08 24.8686 114.509 24.8855Z" fill="#8F90A6"/>
<path d="M133.621 21.723C132.745 21.2955 131.798 21.1384 130.846 20.9992C130.216 20.9069 129.575 20.8761 128.966 20.6657C128.804 20.6074 128.631 20.5264 128.62 20.3078C128.617 20.213 128.644 20.1196 128.696 20.0403C128.748 19.961 128.823 19.8995 128.911 19.8642C129.163 19.7386 129.44 19.6732 129.721 19.6731C130.89 19.6149 132.045 19.9576 132.993 20.6446C133.307 20.86 133.529 20.8065 133.717 20.473C134.099 19.8027 134.477 19.1307 134.85 18.4571C135.03 18.1333 134.975 17.939 134.666 17.748C133.365 16.9366 131.876 16.4769 130.344 16.4138C129.037 16.3523 127.753 16.4348 126.536 16.9805C125.202 17.5812 124.368 18.5575 124.331 20.0795C124.29 21.689 125.014 22.8321 126.479 23.5073C127.4 23.9315 128.39 24.0999 129.381 24.2601C129.988 24.3589 130.605 24.4221 131.184 24.6407C131.422 24.7329 131.66 24.8592 131.643 25.1669C131.625 25.4745 131.379 25.5522 131.157 25.6316C130.727 25.7692 130.274 25.8209 129.824 25.7838C128.529 25.7141 127.376 25.2122 126.274 24.571C125.885 24.3444 125.708 24.3816 125.48 24.7669C125.059 25.475 124.64 26.1848 124.224 26.8961C123.991 27.2944 124.028 27.4806 124.42 27.7235C125.866 28.6008 127.508 29.1018 129.198 29.1807C130.493 29.2066 131.474 29.1224 132.425 28.8375C134.313 28.2708 135.375 27.0564 135.545 25.2754C135.705 23.653 135.032 22.4127 133.621 21.723Z" fill="#8F90A6"/>
<path d="M90.7917 16.6758C89.7047 16.6758 88.6171 16.6758 87.5291 16.6758C86.9915 16.6758 86.8652 16.8005 86.8652 17.3364V28.1393C86.8652 28.787 86.9591 28.889 87.5987 28.889H90.8014C91.2159 28.889 91.3681 28.74 91.3697 28.3239C91.3697 24.6269 91.3697 20.9314 91.3697 17.2376C91.3648 16.8264 91.2094 16.6758 90.7917 16.6758Z" fill="#8F90A6"/>
<path d="M121.951 10.7792C121.31 10.8785 120.734 11.2252 120.346 11.7447C119.958 12.2643 119.79 12.9152 119.877 13.5577C120.029 14.5518 120.772 15.2756 121.883 15.465C122.139 15.5088 122.108 15.5946 122.032 15.7646C121.897 16.061 121.678 16.311 121.402 16.4835C121.364 16.5008 121.329 16.5265 121.302 16.5588C121.275 16.5911 121.255 16.6291 121.245 16.67C121.234 16.7108 121.233 16.7536 121.241 16.795C121.249 16.8365 121.267 16.8755 121.292 16.9093C121.719 17.5699 121.637 17.6023 122.312 17.2688L122.396 17.2283C123.915 16.4009 124.835 15.1801 124.922 13.7131C124.93 11.7475 123.564 10.5396 121.951 10.7792Z" fill="#8F90A6"/>
<path d="M89.2315 10.6869C88.7233 10.6772 88.2238 10.8191 87.7965 11.0944C87.3692 11.3696 87.0336 11.7659 86.8323 12.2326C86.631 12.6993 86.5733 13.2154 86.6663 13.7151C86.7594 14.2148 86.9992 14.6754 87.355 15.0384C87.7108 15.4013 88.1666 15.6501 88.6644 15.7531C89.1621 15.856 89.6792 15.8085 90.1499 15.6165C90.6205 15.4245 91.0233 15.0967 91.307 14.675C91.5907 14.2533 91.7424 13.7566 91.7428 13.2484C91.7464 12.9152 91.6843 12.5846 91.56 12.2754C91.4357 11.9663 91.2517 11.6847 91.0184 11.4468C90.7851 11.2088 90.5072 11.0192 90.2006 10.8889C89.894 10.7585 89.5647 10.6898 89.2315 10.6869Z" fill="#8F90A6"/>
<path d="M19.8572 25.9926C19.6143 26.0201 19.2824 25.7854 19.1383 26.2015C18.9764 26.6419 18.8063 27.0758 18.6185 27.5648C18.4647 27.1568 18.3287 26.799 18.1927 26.4411C18.0097 25.9554 18.0097 25.9716 17.4835 25.9764C17.2924 25.9764 17.2293 26.0331 17.2325 26.2258C17.2423 26.9252 17.2471 27.6247 17.2325 28.3307C17.2325 28.5849 17.3524 28.5784 17.5386 28.5897C17.7636 28.6027 17.7928 28.5023 17.7895 28.3145C17.7782 27.8449 17.7895 27.3754 17.7895 26.9058C18.0205 27.3748 18.2275 27.8552 18.4097 28.3452C18.4485 28.4424 18.4485 28.5784 18.612 28.5849C18.7756 28.5913 18.7966 28.444 18.8387 28.3355C19.0282 27.8498 19.2111 27.3737 19.3957 26.8912C19.4376 27.3704 19.4506 27.8516 19.4346 28.3323C19.4346 28.5492 19.5139 28.5946 19.7098 28.5881C19.9057 28.5816 20.0239 28.5881 20.0175 28.3339C19.9997 27.6652 20.0175 26.9981 20.0061 26.3294C19.9997 26.2015 20.1033 25.9651 19.8572 25.9926Z" fill="#8F90A6"/>
<path d="M16.7076 25.9749C16.1846 25.9895 15.6616 25.9862 15.1403 25.9749C14.9508 25.9749 14.8877 26.0267 14.8877 26.221C14.8877 26.4153 14.9379 26.5157 15.1484 26.4898C15.231 26.4784 15.3103 26.4898 15.3993 26.4898C15.5775 26.4703 15.639 26.5448 15.6309 26.7213C15.6179 26.9917 15.6309 27.2637 15.6309 27.5309C15.6309 27.798 15.6422 28.0943 15.6309 28.3761C15.6179 28.6238 15.7928 28.5671 15.9223 28.572C16.0519 28.5768 16.2122 28.6028 16.2041 28.3647C16.1895 27.9162 16.2041 27.4677 16.2041 27.0176C16.2041 26.5124 16.2041 26.5027 16.7206 26.4914C16.91 26.4914 16.9456 26.4104 16.9424 26.2453C16.9392 26.0801 16.9311 25.97 16.7076 25.9749Z" fill="#8F90A6"/>
<path d="M139.102 17.8838C139.016 17.5309 138.704 17.3317 138.228 17.3301C137.998 17.3301 137.766 17.3301 137.536 17.3301C137.392 17.3301 137.334 17.3722 137.334 17.526C137.334 18.2255 137.334 18.9249 137.334 19.6309C137.334 19.741 137.334 19.8349 137.496 19.8333C137.658 19.8317 137.711 19.7977 137.702 19.6406C137.692 19.474 137.692 19.3069 137.702 19.1403C137.71 19.0399 137.632 18.8861 137.808 18.8586C137.949 18.8375 138.093 18.8262 138.187 18.9946C138.296 19.1953 138.446 19.3751 138.553 19.5775C138.679 19.8203 138.851 19.8916 139.133 19.7863L138.535 18.8618C139.023 18.6238 139.204 18.3064 139.102 17.8838ZM138.061 18.5121C137.663 18.5461 137.668 18.3372 137.697 18.1299C137.697 17.5989 137.642 17.6539 138.114 17.6442C138.548 17.6442 138.746 17.7753 138.752 18.0684C138.759 18.3615 138.552 18.4716 138.061 18.5121Z" fill="#8F90A6"/>
</svg>
