<svg width="67" height="20" viewBox="0 0 67 20" fill="none" xmlns="http://www.w3.org/2000/svg">
<path d="M61.1193 0C49.4306 0.00265252 46.4658 6.27321 45.9884 10.5305C45.4468 15.3103 48.9281 20 57.5097 20C61.1221 20 63.4838 19.4032 64.3213 19.1512C64.4254 19.1201 64.5186 19.0628 64.5909 18.9852C64.6632 18.9076 64.7119 18.8128 64.7317 18.7109L65.2147 16.2971C65.2313 16.2141 65.2251 16.1285 65.1965 16.0486C65.1679 15.9686 65.118 15.8971 65.0516 15.841C64.9852 15.7848 64.9046 15.746 64.8177 15.7283C64.7308 15.7107 64.6406 15.7147 64.5558 15.7401C63.6178 16.0212 61.9596 16.4085 59.8519 16.4085C55.7509 16.4085 52.7889 14.069 53.1658 10.0424C53.5287 6.14324 56.2953 3.17241 60.1031 3.17241C62.3923 3.17241 63.4057 4.313 63.3303 5.83289V5.92042C63.3269 5.98605 63.3375 6.05166 63.3615 6.1133C63.3854 6.17495 63.4222 6.23136 63.4696 6.27917C63.5171 6.32697 63.5742 6.36518 63.6376 6.3915C63.7009 6.41783 63.7692 6.43173 63.8384 6.43236H65.3933C65.6334 6.43236 65.84 6.27321 65.8958 6.05305L66.9846 1.38462C67.0192 1.24237 66.995 1.09294 66.9171 0.967107C66.8392 0.841272 66.7135 0.748614 66.5658 0.708223C64.7937 0.23772 62.9621 0.000319598 61.1221 0.00265359L61.1193 0ZM4.84754 0.307693C4.72086 0.307753 4.59796 0.348747 4.49903 0.423942C4.40011 0.499138 4.33104 0.604064 4.30317 0.721486L4.00166 2.00531C3.9725 2.13161 3.99341 2.2637 4.06037 2.37627C4.12734 2.48884 4.23566 2.57398 4.36458 2.61538L4.45671 2.64191C5.03738 2.85942 5.71296 3.34748 5.42821 4.626L3.2172 14.2281C2.63933 16.8462 1.70412 17.3846 0.816366 17.4801H0.788449C0.670672 17.4911 0.559613 17.5373 0.471301 17.6122C0.382989 17.687 0.321993 17.7866 0.297115 17.8966L0.0123639 19.1273C-0.00471404 19.2016 -0.00409268 19.2785 0.0141825 19.3525C0.0324576 19.4264 0.0679234 19.4956 0.11798 19.5548C0.168037 19.6141 0.231416 19.662 0.303472 19.6949C0.375528 19.7279 0.454434 19.7451 0.534407 19.7454H10.269C10.5063 19.7454 10.7128 19.5862 10.7631 19.3687L11.0981 17.9284C11.1239 17.8154 11.1066 17.6974 11.0493 17.5954C10.9921 17.4934 10.8985 17.414 10.7854 17.3714L10.724 17.3448C10.2299 17.1591 9.55709 16.7507 9.73018 15.992L10.8608 11.0849C14.7384 17.809 16.0198 19.748 20.6707 19.7454H24.875C24.9902 19.7455 25.102 19.7082 25.1919 19.6397C25.2818 19.5712 25.3443 19.4756 25.3691 19.3687L25.6623 18.122C25.6801 18.0472 25.6802 17.9696 25.6625 17.8948C25.6449 17.8199 25.6099 17.7498 25.5602 17.6893C25.5105 17.6289 25.4473 17.5797 25.3752 17.5454C25.303 17.511 25.2237 17.4924 25.143 17.4907C24.0933 17.4748 23.5797 17.244 22.5328 15.9655L17.1393 9.03183L24.1464 3.49337C25.0872 2.7931 26.2345 2.59682 26.871 2.51724L26.9325 2.51194C27.041 2.50208 27.1436 2.45982 27.2253 2.3912C27.307 2.32259 27.3638 2.23114 27.3875 2.12997L27.6751 0.899206C27.6913 0.827946 27.6906 0.754128 27.6729 0.683177C27.6552 0.612227 27.621 0.545946 27.5728 0.489207C27.5246 0.432468 27.4636 0.386712 27.3943 0.355301C27.3251 0.323889 27.2493 0.307621 27.1726 0.307693H18.7417C18.6162 0.308337 18.4947 0.349325 18.3968 0.42398C18.299 0.498635 18.2306 0.602561 18.2029 0.718835L17.9182 1.93899C17.8875 2.06992 17.9103 2.20701 17.9817 2.32266C18.0532 2.43831 18.1682 2.52395 18.3034 2.56234C18.8003 2.74536 18.9092 3.19894 18.4793 3.53316L11.2963 9.20424L12.5246 3.86207C12.6081 3.5548 12.775 3.27375 13.0087 3.04704C13.2424 2.82034 13.5347 2.65594 13.8563 2.57029L13.9261 2.54907C14.0195 2.52137 14.1035 2.47072 14.1697 2.40225C14.2358 2.33378 14.2818 2.24992 14.3029 2.15915L14.5989 0.893901C14.6152 0.8237 14.6147 0.750915 14.5974 0.680921C14.5801 0.610927 14.5466 0.545508 14.4991 0.489495C14.4517 0.433483 14.3916 0.388306 14.3234 0.357299C14.2551 0.326292 14.1804 0.310246 14.1047 0.310346L4.84754 0.307693ZM29.6376 0.307693C29.5114 0.308353 29.3891 0.349623 29.2908 0.42477C29.1924 0.499916 29.1238 0.604506 29.096 0.721486L28.7973 2.00265C28.7687 2.12304 28.7875 2.24922 28.8503 2.35727C28.9131 2.46532 29.0154 2.54772 29.1379 2.58886L29.1937 2.61008C29.7632 2.81432 30.5533 3.33687 30.2099 4.62069L26.832 19.1565C26.8152 19.2272 26.8154 19.3007 26.8326 19.3713C26.8498 19.442 26.8835 19.508 26.9312 19.5646C26.979 19.6212 27.0395 19.6668 27.1084 19.6981C27.1772 19.7294 27.2526 19.7455 27.3289 19.7454H35.0814C35.3214 19.7454 35.528 19.5862 35.5811 19.366L35.9161 17.9151C35.9401 17.8118 35.926 17.7038 35.8762 17.6091C35.8264 17.5145 35.7439 17.439 35.6425 17.3952C35.6172 17.384 35.5921 17.3725 35.5671 17.3607C35.0758 17.1326 34.3444 16.6048 34.59 15.5836C34.6152 15.4509 35.3438 12.2944 35.3438 12.2944H41.9377C42.1778 12.2944 42.3844 12.1353 42.4402 11.9151L43.0572 9.2626C43.0745 9.19111 43.0745 9.11681 43.0572 9.04531C43.04 8.97381 43.0059 8.90695 42.9575 8.84977C42.9092 8.79259 42.8478 8.74656 42.778 8.71515C42.7082 8.68375 42.6319 8.66777 42.5547 8.66844H36.1897L37.3817 3.52255L41.826 3.51459C43.2638 3.51459 43.702 4.23077 43.6183 5.44562L43.6127 5.50928C43.6044 5.57767 43.6115 5.64695 43.6334 5.71257C43.6553 5.77819 43.6916 5.83866 43.7398 5.89001C43.7881 5.94136 43.8472 5.98244 43.9133 6.01054C43.9795 6.03864 44.0511 6.05313 44.1236 6.05305H45.7623C46.0024 6.05305 46.209 5.8939 46.2592 5.67109L47.3759 0.896552C47.3917 0.825478 47.3906 0.751951 47.3727 0.681336C47.3547 0.61072 47.3204 0.544798 47.2723 0.488375C47.2241 0.431951 47.1633 0.38645 47.0943 0.355192C47.0253 0.323934 46.9498 0.307706 46.8734 0.307693H29.6376Z" fill="#8F90A6"/>
</svg>
