<svg width="236" height="99" viewBox="0 0 236 99" fill="none" xmlns="http://www.w3.org/2000/svg">
<path fill-rule="evenodd" clip-rule="evenodd" d="M207 8.32196C206.994 8.21799 206.962 8.11727 206.906 8.02917C206.851 7.94108 206.775 7.86855 206.685 7.81805C206.277 7.61105 205.682 7.46997 204.471 7.46997C201.738 7.46997 199.321 8.83795 198.266 11.127V8.33093C198.267 8.27329 198.255 8.21616 198.234 8.16284C198.212 8.10953 198.18 8.06122 198.14 8.02039C198.099 7.97955 198.051 7.94709 197.998 7.92499C197.946 7.90288 197.889 7.89148 197.832 7.89148H193.74C193.682 7.89148 193.626 7.90288 193.573 7.92499C193.52 7.94709 193.472 7.97955 193.432 8.02039C193.391 8.06122 193.359 8.10953 193.338 8.16284C193.316 8.21616 193.305 8.27329 193.305 8.33093V27.18C193.305 27.4215 193.499 27.618 193.74 27.618H198.027C198.084 27.618 198.14 27.6067 198.193 27.5847C198.246 27.5626 198.294 27.5303 198.334 27.4896C198.374 27.449 198.406 27.4007 198.428 27.3475C198.45 27.2944 198.461 27.2375 198.461 27.18V18.702C198.461 14.9145 201.073 13.032 204.471 13.032C205.264 13.032 206.055 13.2091 206.453 13.3411C206.725 13.4311 207 13.2059 207 12.9164V8.32196ZM179.606 22.992C176.675 22.992 174.41 20.9026 174.41 17.7466C174.41 14.5906 176.677 12.4995 179.606 12.4995C182.535 12.4995 184.801 14.5906 184.801 17.7466C184.801 20.9026 182.535 22.9935 179.606 22.9935V22.992ZM179.606 7.40845C173.59 7.40845 169.099 11.5921 169.099 17.7466C169.099 23.9011 173.591 28.0831 179.606 28.0831C185.619 28.0831 190.111 23.901 190.111 17.748C190.111 11.592 185.619 7.40845 179.606 7.40845ZM155.754 22.9935C152.823 22.9935 150.557 20.9026 150.557 17.7466C150.557 14.5906 152.823 12.4995 155.754 12.4995C158.683 12.4995 160.947 14.5906 160.947 17.7466C160.947 20.9026 158.683 22.9935 155.754 22.9935ZM155.754 7.40845C149.738 7.40845 145.245 11.5921 145.245 17.7466C145.245 23.9011 149.738 28.0831 155.754 28.0831C161.766 28.0831 166.259 23.9011 166.259 17.7466C166.259 11.5921 161.766 7.40845 155.754 7.40845ZM131.934 23.0414C129.005 23.0414 126.817 20.9506 126.817 17.7556C126.817 14.5591 129.005 12.468 131.934 12.468C134.826 12.468 137.051 14.4811 137.051 17.7556C137.051 20.9896 134.826 23.0414 131.934 23.0414ZM141.617 0.00146484H137.33C137.214 0.00146484 137.104 0.0476808 137.022 0.129822C136.941 0.211963 136.895 0.323288 136.895 0.439453V10.7325C135.567 8.83804 133.38 7.37695 130.335 7.37695C125.569 7.37695 121.506 11.0881 121.506 17.7556C121.506 24.4231 125.567 28.131 130.411 28.131C133.263 28.131 135.489 26.8681 136.897 24.8566V27.18C136.897 27.4215 137.09 27.618 137.328 27.618H141.617C141.855 27.618 142.05 27.423 142.05 27.18V0.439453C142.05 0.323548 142.004 0.212469 141.923 0.130371C141.842 0.0482731 141.732 0.00186178 141.617 0.00146484ZM118.666 21.6465C118.666 26.1465 115.425 28.0785 110.231 28.0785C106.642 28.0785 103.555 27.1035 101.789 25.0845C101.723 25.0053 101.685 24.9054 101.683 24.8015C101.681 24.6975 101.715 24.5961 101.779 24.5145L104.257 21.2655C104.295 21.2164 104.344 21.1763 104.399 21.1479C104.454 21.1196 104.515 21.1037 104.576 21.1013C104.638 21.0988 104.7 21.1099 104.757 21.1339C104.814 21.1578 104.865 21.1941 104.907 21.2401C106.216 22.5946 108.231 23.4225 110.739 23.4225C112.182 23.4225 113.354 23.0294 113.354 21.924C113.354 20.8589 112.301 20.6221 109.019 19.9111C106.129 19.3201 102.535 17.979 102.535 13.6785C102.535 9.69303 105.661 7.40552 110.776 7.40552C114.142 7.40552 116.563 8.43153 118.267 10.0455C118.431 10.2 118.446 10.461 118.308 10.6395L115.956 13.7236C115.921 13.7709 115.877 13.8105 115.827 13.8398C115.777 13.8692 115.721 13.8877 115.663 13.8942C115.605 13.9007 115.546 13.8951 115.491 13.8776C115.435 13.86 115.384 13.831 115.34 13.7924C114.187 12.7529 112.269 12.1005 110.386 12.1005C108.785 12.1005 107.887 12.6136 107.887 13.4806C107.887 14.4676 108.943 14.7045 112.418 15.4545C115.814 16.2045 118.666 17.505 118.666 21.648V21.6465ZM98.8423 21.6584C98.8423 26.1569 95.5993 28.0906 90.4061 28.0906C86.818 28.0906 83.7312 27.1155 81.9654 25.095C81.8988 25.0161 81.8614 24.9164 81.8592 24.8128C81.857 24.7092 81.8903 24.6081 81.9535 24.5264L84.4319 21.2759C84.4704 21.2272 84.5188 21.1874 84.574 21.1593C84.6292 21.1312 84.6897 21.1156 84.7515 21.1133C84.8132 21.1111 84.8748 21.1222 84.9318 21.1461C84.9889 21.1701 85.0401 21.2062 85.082 21.252C86.3926 22.605 88.4068 23.4346 90.9134 23.4346C92.3578 23.4346 93.5301 23.0416 93.5301 21.9346C93.5301 20.8696 92.4754 20.634 89.1952 19.923C86.3033 19.3305 82.7092 17.9894 82.7092 13.6904C82.7092 9.70493 85.8362 7.41742 90.9521 7.41742C94.317 7.41742 96.7359 8.44193 98.4422 10.0574C98.6058 10.2119 98.6206 10.4714 98.4838 10.6514L96.1304 13.7355C95.9817 13.9305 95.699 13.9695 95.516 13.8045C94.3616 12.765 92.4457 12.111 90.5624 12.111C88.9602 12.111 88.0616 12.6255 88.0616 13.4925C88.0616 14.4795 89.1179 14.7166 92.5929 15.4666C95.9906 16.2151 98.8409 17.5169 98.8409 21.6584H98.8423ZM73.1469 19.6485C73.1469 21.8175 71.3916 23.712 68.6559 23.712C66.8589 23.712 65.883 22.8824 65.883 21.6194C65.883 20.5154 66.7041 19.6859 68.3048 19.4489L73.1469 18.858V19.647V19.6485ZM69.7507 7.45642C65.6598 7.45642 62.579 8.83941 61.2015 11.5739C61.1561 11.6688 61.1453 11.7769 61.1711 11.879C61.197 11.9811 61.2578 12.0707 61.3428 12.132L64.4683 14.3881C64.6646 14.5291 64.9413 14.4824 65.0588 14.2679C65.9276 12.6899 67.8704 12.1514 69.7507 12.1514C72.055 12.1514 73.1469 12.9795 73.1469 14.124V14.439C73.1469 14.913 72.8747 15.1499 72.1324 15.2294L66.7815 15.702C63.1889 16.056 60.5335 18.3061 60.5335 21.8956C60.5335 25.5256 63.2663 28.0499 67.1326 28.0499C70.1792 28.0499 72.1324 26.5516 73.1469 24.9736V27.2175C73.1469 27.4605 73.3403 27.657 73.5813 27.657H77.8686C77.9838 27.657 78.0943 27.6108 78.1758 27.5286C78.2572 27.4465 78.303 27.3352 78.303 27.219V15.4651C78.303 9.98109 75.4512 7.45642 69.7493 7.45642H69.7507ZM56.996 0.437988V27.1785C56.996 27.42 56.8027 27.6165 56.5617 27.6165H52.2357C52.1205 27.6165 52.01 27.5703 51.9285 27.4882C51.8471 27.406 51.8013 27.2947 51.8013 27.1785V0.430481C51.8013 0.191981 51.9917 0 52.2268 0H56.5617C56.8012 0 56.996 0.194988 56.996 0.437988ZM37.4281 23.0206C34.4975 23.0206 32.3108 20.9295 32.3108 17.7345C32.3108 14.5395 34.499 12.447 37.4281 12.447C40.3587 12.447 42.5052 14.46 42.5052 17.7345C42.5052 20.9685 40.3572 23.0206 37.4281 23.0206ZM47.1094 7.87042H42.8281C42.7113 7.87042 42.5994 7.91734 42.5168 8.00061C42.4342 8.08388 42.3878 8.1967 42.3878 8.31445V10.6335C41.2944 8.85748 39.0288 7.39655 36.0223 7.39655C31.1787 7.39655 27 11.067 27 17.6565C27 24.204 30.9838 27.7936 36.1785 27.7936C38.9901 27.7936 41.1768 26.61 42.4666 24.756V26.0189C42.4666 28.8584 41.098 31.1085 36.7244 31.1085C34.5258 31.1085 32.76 30.369 31.2114 28.9845C31.1652 28.9415 31.11 28.9093 31.05 28.8904C30.9899 28.8714 30.9265 28.8661 30.8642 28.8748C30.8019 28.8836 30.7422 28.9061 30.6896 28.9409C30.637 28.9757 30.5927 29.0219 30.5598 29.076L28.6185 32.3641C28.3671 32.7886 28.4013 33.0286 28.559 33.1681C30.5553 34.9186 33.1498 36 36.9208 36C45.122 36 47.5438 31.386 47.5438 26.295V8.31006C47.544 8.25241 47.5329 8.19528 47.5112 8.14197C47.4895 8.08865 47.4575 8.04016 47.4171 7.99933C47.3768 7.9585 47.3288 7.92604 47.276 7.90393C47.2232 7.88183 47.1666 7.87042 47.1094 7.87042Z" fill="#0CAA41"/>
<path fill-rule="evenodd" clip-rule="evenodd" d="M75 76.6437L82.2432 80.894C83.0036 81.3402 83.9274 80.6555 83.7217 79.7982L81.81 71.8312L88.1453 66.4955C88.8278 65.9206 88.4727 64.8074 87.5833 64.734L79.215 64.0437L75.9167 56.4778C75.5677 55.6773 74.4323 55.6773 74.0833 56.4778L70.785 64.0437L62.4167 64.734C61.5273 64.8074 61.1722 65.9206 61.8547 66.4955L68.19 71.8312L66.2783 79.7982C66.0726 80.6555 66.9964 81.3402 67.7568 80.894L75 76.6437Z" fill="#00A738"/>
<mask id="mask0_18909_828" style="mask-type:alpha" maskUnits="userSpaceOnUse" x="61" y="55" width="28" height="27">
<path fill-rule="evenodd" clip-rule="evenodd" d="M75 76.6437L82.2432 80.894C83.0036 81.3402 83.9274 80.6555 83.7217 79.7982L81.81 71.8312L88.1453 66.4955C88.8278 65.9206 88.4727 64.8074 87.5833 64.734L79.215 64.0437L75.9167 56.4778C75.5677 55.6773 74.4323 55.6773 74.0833 56.4778L70.785 64.0437L62.4167 64.734C61.5273 64.8074 61.1722 65.9206 61.8547 66.4955L68.19 71.8312L66.2783 79.7982C66.0726 80.6555 66.9964 81.3402 67.7568 80.894L75 76.6437Z" fill="white"/>
</mask>
<g mask="url(#mask0_18909_828)">
<rect x="57" y="50" width="36" height="35" fill="#0DAA41"/>
</g>
<path fill-rule="evenodd" clip-rule="evenodd" d="M111 76.6437L118.243 80.894C119.004 81.3402 119.927 80.6555 119.722 79.7982L117.81 71.8312L124.145 66.4955C124.828 65.9206 124.473 64.8074 123.583 64.734L115.215 64.0437L111.917 56.4778C111.568 55.6773 110.432 55.6773 110.083 56.4778L106.785 64.0437L98.4167 64.734C97.5273 64.8074 97.1722 65.9206 97.8547 66.4955L104.19 71.8312L102.278 79.7982C102.073 80.6555 102.996 81.3402 103.757 80.894L111 76.6437Z" fill="#00A738"/>
<mask id="mask1_18909_828" style="mask-type:alpha" maskUnits="userSpaceOnUse" x="97" y="55" width="28" height="27">
<path fill-rule="evenodd" clip-rule="evenodd" d="M111 76.6437L118.243 80.894C119.004 81.3402 119.927 80.6555 119.722 79.7982L117.81 71.8312L124.145 66.4955C124.828 65.9206 124.473 64.8074 123.583 64.734L115.215 64.0437L111.917 56.4778C111.568 55.6773 110.432 55.6773 110.083 56.4778L106.785 64.0437L98.4167 64.734C97.5273 64.8074 97.1722 65.9206 97.8547 66.4955L104.19 71.8312L102.278 79.7982C102.073 80.6555 102.996 81.3402 103.757 80.894L111 76.6437Z" fill="white"/>
</mask>
<g mask="url(#mask1_18909_828)">
<rect x="93" y="50" width="36" height="35" fill="#0DAA41"/>
</g>
<path fill-rule="evenodd" clip-rule="evenodd" d="M146.5 76.6437L153.484 80.8587C154.241 81.3158 155.175 80.6368 154.974 79.7754L153.121 71.8312L159.292 66.4852C159.961 65.906 159.603 64.8078 158.722 64.733L150.598 64.0437L147.421 56.5474C147.076 55.7343 145.924 55.7343 145.579 56.5474L142.402 64.0437L134.278 64.733C133.397 64.8078 133.04 65.906 133.708 66.4852L139.879 71.8312L138.026 79.7754C137.825 80.6368 138.759 81.3158 139.517 80.8587L146.5 76.6437Z" fill="#00A738"/>
<mask id="mask2_18909_828" style="mask-type:alpha" maskUnits="userSpaceOnUse" x="133" y="55" width="27" height="27">
<path fill-rule="evenodd" clip-rule="evenodd" d="M146.5 76.6437L153.484 80.8587C154.241 81.3158 155.175 80.6368 154.974 79.7754L153.121 71.8312L159.292 66.4852C159.961 65.906 159.603 64.8078 158.722 64.733L150.598 64.0437L147.421 56.5474C147.076 55.7343 145.924 55.7343 145.579 56.5474L142.402 64.0437L134.278 64.733C133.397 64.8078 133.04 65.906 133.708 66.4852L139.879 71.8312L138.026 79.7754C137.825 80.6368 138.759 81.3158 139.517 80.8587L146.5 76.6437Z" fill="white"/>
</mask>
<g mask="url(#mask2_18909_828)">
<rect x="129" y="50" width="35" height="35" fill="#0DAA41"/>
</g>
<path fill-rule="evenodd" clip-rule="evenodd" d="M182 76.6437L189.243 80.894C190.004 81.3402 190.927 80.6555 190.722 79.7982L188.81 71.8312L195.145 66.4955C195.828 65.9206 195.473 64.8074 194.583 64.734L186.215 64.0437L182.917 56.4778C182.568 55.6773 181.432 55.6773 181.083 56.4778L177.785 64.0437L169.417 64.734C168.527 64.8074 168.172 65.9206 168.855 66.4955L175.19 71.8312L173.278 79.7982C173.073 80.6555 173.996 81.3402 174.757 80.894L182 76.6437Z" fill="#00A738"/>
<mask id="mask3_18909_828" style="mask-type:alpha" maskUnits="userSpaceOnUse" x="168" y="55" width="28" height="27">
<path fill-rule="evenodd" clip-rule="evenodd" d="M182 76.6437L189.243 80.894C190.004 81.3402 190.927 80.6555 190.722 79.7982L188.81 71.8312L195.145 66.4955C195.828 65.9206 195.473 64.8074 194.583 64.734L186.215 64.0437L182.917 56.4778C182.568 55.6773 181.432 55.6773 181.083 56.4778L177.785 64.0437L169.417 64.734C168.527 64.8074 168.172 65.9206 168.855 66.4955L175.19 71.8312L173.278 79.7982C173.073 80.6555 173.996 81.3402 174.757 80.894L182 76.6437Z" fill="white"/>
</mask>
<g mask="url(#mask3_18909_828)">
<rect x="164" y="50" width="36" height="35" fill="#0DAA41"/>
</g>
<path fill-rule="evenodd" clip-rule="evenodd" d="M218 76.6437L225.243 80.894C226.004 81.3402 226.927 80.6555 226.722 79.7982L224.81 71.8312L231.145 66.4955C231.828 65.9206 231.473 64.8074 230.583 64.734L222.215 64.0437L218.917 56.4778C218.568 55.6773 217.432 55.6773 217.083 56.4778L213.785 64.0437L205.417 64.734C204.527 64.8074 204.172 65.9206 204.855 66.4955L211.19 71.8312L209.278 79.7982C209.073 80.6555 209.996 81.3402 210.757 80.894L218 76.6437Z" fill="#00A738"/>
<mask id="mask4_18909_828" style="mask-type:alpha" maskUnits="userSpaceOnUse" x="204" y="55" width="28" height="27">
<path fill-rule="evenodd" clip-rule="evenodd" d="M218 76.6437L225.243 80.894C226.004 81.3402 226.927 80.6555 226.722 79.7982L224.81 71.8312L231.145 66.4955C231.828 65.9206 231.473 64.8074 230.583 64.734L222.215 64.0437L218.917 56.4778C218.568 55.6773 217.432 55.6773 217.083 56.4778L213.785 64.0437L205.417 64.734C204.527 64.8074 204.172 65.9206 204.855 66.4955L211.19 71.8312L209.278 79.7982C209.073 80.6555 209.996 81.3402 210.757 80.894L218 76.6437Z" fill="white"/>
</mask>
<g mask="url(#mask4_18909_828)">
<rect x="200" y="50" width="36" height="35" fill="#0DAA41"/>
</g>
<path d="M14.248 74.496H7.912L14.248 64.74V74.496ZM13.672 58.8L0.856 78.528H14.176V84H18.496V78.528H21.268V74.496H18.496V58.8H13.672ZM24.2118 81.588C24.2118 82.38 24.4638 83.064 25.0398 83.604C25.5798 84.18 26.2638 84.432 27.0558 84.432C27.8478 84.432 28.4958 84.18 29.0718 83.604C29.6118 83.064 29.8998 82.38 29.8998 81.588C29.8998 80.796 29.6118 80.148 29.0718 79.572C28.4958 79.032 27.8478 78.744 27.0558 78.744C26.2638 78.744 25.5798 79.032 25.0398 79.572C24.4638 80.148 24.2118 80.796 24.2118 81.588ZM45.7657 65.676C45.7657 66.72 45.4057 67.548 44.6857 68.124C43.9657 68.736 43.1377 69.024 42.1297 69.024C41.1217 69.024 40.2577 68.736 39.5377 68.124C38.8177 67.548 38.4937 66.72 38.4937 65.676C38.4937 64.668 38.8177 63.84 39.5377 63.228C40.2577 62.652 41.1217 62.328 42.1297 62.328C43.1377 62.328 43.9657 62.652 44.6857 63.228C45.4057 63.84 45.7657 64.668 45.7657 65.676ZM42.1297 80.472C41.4097 80.472 40.7617 80.364 40.2577 80.148C39.7177 79.932 39.2857 79.644 38.9257 79.284C38.5657 78.924 38.2777 78.492 38.0977 77.988C37.9177 77.52 37.8457 77.016 37.8457 76.512C37.8457 76.008 37.9177 75.54 38.0977 75.072C38.2777 74.604 38.5657 74.172 38.9257 73.812C39.2857 73.452 39.7177 73.164 40.2577 72.948C40.7617 72.732 41.4097 72.624 42.1297 72.624C42.8497 72.624 43.4617 72.732 44.0017 72.948C44.5057 73.164 44.9737 73.452 45.3337 73.812C45.6937 74.172 45.9457 74.604 46.1257 75.072C46.3057 75.54 46.4137 76.008 46.4137 76.512C46.4137 77.016 46.3057 77.52 46.1257 77.988C45.9457 78.492 45.6937 78.924 45.3337 79.284C44.9737 79.644 44.5057 79.932 44.0017 80.148C43.4617 80.364 42.8497 80.472 42.1297 80.472ZM42.1297 58.368C40.7977 58.368 39.6457 58.584 38.6737 58.98C37.6657 59.412 36.8377 59.952 36.1897 60.6C35.5417 61.284 35.0377 62.04 34.7137 62.904C34.3537 63.768 34.2097 64.668 34.2097 65.532C34.2097 66.18 34.2817 66.792 34.4617 67.296C34.6057 67.836 34.8217 68.304 35.1097 68.7C35.3617 69.132 35.6497 69.492 36.0097 69.816C36.3337 70.14 36.6577 70.392 37.0177 70.608C36.5857 70.824 36.1897 71.076 35.7937 71.4C35.3617 71.724 35.0017 72.12 34.6417 72.624C34.2817 73.128 34.0297 73.704 33.8137 74.352C33.5977 75 33.4897 75.756 33.4897 76.548C33.4897 77.628 33.6697 78.636 34.0657 79.572C34.4257 80.544 35.0017 81.372 35.7577 82.092C36.4777 82.812 37.3777 83.388 38.4577 83.82C39.5377 84.252 40.7617 84.432 42.1297 84.432C43.4977 84.432 44.6857 84.252 45.7657 83.82C46.8457 83.388 47.7457 82.812 48.5017 82.092C49.2217 81.372 49.7977 80.544 50.1937 79.572C50.5537 78.636 50.7697 77.628 50.7697 76.548C50.7697 75.756 50.6617 75 50.4457 74.352C50.2297 73.704 49.9417 73.128 49.5817 72.624C49.2217 72.12 48.8617 71.724 48.4297 71.4C47.9977 71.076 47.6017 70.824 47.2417 70.608C47.5657 70.392 47.8897 70.14 48.2497 69.816C48.5737 69.492 48.8617 69.132 49.1497 68.7C49.4017 68.304 49.6177 67.836 49.7977 67.296C49.9417 66.792 50.0497 66.18 50.0497 65.532C50.0497 64.668 49.8697 63.768 49.5457 62.904C49.1857 62.04 48.6817 61.284 48.0337 60.6C47.3857 59.952 46.5577 59.412 45.5857 58.98C44.5777 58.584 43.4257 58.368 42.1297 58.368Z" fill="black"/>
</svg>
